<?xml version="1.0" encoding="UTF-8" standalone="no"?>
<!DOCTYPE svg PUBLIC "-//W3C//DTD SVG 1.1//EN" "http://www.w3.org/Graphics/SVG/1.1/DTD/svg11.dtd">
<svg width="100%" height="100%" viewBox="0 0 817 830" version="1.1" xmlns="http://www.w3.org/2000/svg" xmlns:xlink="http://www.w3.org/1999/xlink" xml:space="preserve" xmlns:serif="http://www.serif.com/" style="fill-rule:evenodd;clip-rule:evenodd;stroke-linejoin:round;stroke-miterlimit:2;">
    <g transform="matrix(1,0,0,1,-102.459,-332.171)">
        <g transform="matrix(1,0,0,1,-630.706,26.3006)">
            <g transform="matrix(6.07153e-17,1,-1,6.07153e-17,1742.33,-312.561)">
                <path d="M816.707,500.34C760.809,556.237 729.406,632.051 729.406,711.102C729.406,875.607 862.964,1009.16 1027.47,1009.16C1191.97,1009.16 1325.53,875.607 1325.53,711.102C1325.53,609.889 1274.17,515.592 1189.14,460.694L1161.76,503.104C1232.39,548.705 1275.05,627.031 1275.05,711.102C1275.05,847.745 1164.11,958.682 1027.47,958.682C890.825,958.682 779.888,847.745 779.888,711.102C779.888,645.439 805.972,582.466 852.403,536.036L816.707,500.34Z" style="fill:url(#_Linear1);"/>
            </g>
            <g transform="matrix(6.245e-17,1,-1,6.245e-17,1780.82,-335.071)">
                <path d="M914.207,609.311C878.198,645.32 857.969,694.159 857.969,745.083C857.969,851.056 944.006,937.093 1049.98,937.093C1155.95,937.093 1241.99,851.056 1241.99,745.083C1241.99,694.159 1221.76,645.32 1185.75,609.311L1151.81,643.254C1178.81,670.261 1193.99,706.89 1193.99,745.083C1193.99,824.563 1129.46,889.091 1049.98,889.091C970.499,889.091 905.971,824.563 905.971,745.083C905.971,706.89 921.143,670.261 948.15,643.254L914.207,609.311Z" style="fill:url(#_Linear2);"/>
            </g>
            <g transform="matrix(-1.75686,-1.69952,-5.23344,5.41001,4209.61,-84.7418)">
                <path d="M671.062,283.012L686.469,330.764L655.655,330.764L671.062,283.012Z" style="fill:rgb(100,76,239);"/>
            </g>
            <path d="M1241.14,503.329C1241.14,503.329 1308.91,565.462 1346.18,599.643C1361.78,613.941 1372.86,632.477 1378.09,652.98C1380.14,661.061 1382.31,669.576 1384.21,677.037C1387.81,691.172 1395.35,703.997 1405.94,714.025C1433.82,740.416 1491.02,794.57 1524.19,825.973C1540.1,841.037 1547.84,862.81 1545,884.537C1544.73,886.609 1544.45,888.754 1544.16,890.967C1539.07,929.931 1510.53,961.747 1472.35,971.022C1434.16,980.297 1394.2,965.119 1371.81,932.832C1371.15,931.883 1370.52,930.971 1369.91,930.096C1363.95,921.503 1355.97,914.506 1346.67,909.719C1332.63,902.49 1311.71,891.721 1301.01,886.215C1296.61,883.949 1291.53,883.379 1286.73,884.614C1286.73,884.614 1286.73,884.614 1286.73,884.614C1231.81,898.758 1173.44,887.972 1127.2,855.132C1117.7,848.386 1108.03,841.514 1098.68,834.878C1059.71,807.204 1041.03,758.942 1051.2,712.241C1055.64,691.82 1059.23,675.343 1059.23,675.343C1059.23,675.343 1063.93,700.807 1068.53,725.704C1074.11,755.931 1091.14,782.838 1116.08,800.813C1120.43,803.953 1124.96,807.219 1129.57,810.536C1174.4,842.855 1231.01,854.231 1284.85,841.739C1284.85,841.739 1284.85,841.739 1284.85,841.739C1288.78,840.827 1292.91,841.282 1296.55,843.03C1312.86,850.86 1360.15,873.572 1378.4,882.336C1383.2,884.639 1387.35,888.091 1390.49,892.384C1393.64,896.693 1398.17,902.884 1403.53,910.213C1416.84,928.403 1439.54,937.143 1461.61,932.57C1483.68,927.997 1501.04,910.953 1506.02,888.975C1506.02,888.974 1506.02,888.973 1506.02,888.973C1509.77,872.426 1504.18,855.153 1491.46,843.932C1458.72,815.061 1395.37,759.2 1363.87,731.423C1351.69,720.687 1343.21,706.385 1339.64,690.552C1339.12,688.245 1338.58,685.879 1338.05,683.502C1333.01,661.19 1321.06,641.034 1303.91,625.9C1267.42,593.699 1206,539.491 1206,539.491L1241.14,503.329Z" style="fill:url(#_Linear3);"/>
            <circle cx="1268.31" cy="688.59" r="26.318" style="fill:rgb(111,105,233);"/>
        </g>
    </g>
    <defs>
        <linearGradient id="_Linear1" x1="0" y1="0" x2="1" y2="0" gradientUnits="userSpaceOnUse" gradientTransform="matrix(563.754,327.782,-327.782,563.754,816.155,570.825)"><stop offset="0" style="stop-color:rgb(92,57,243);stop-opacity:1"/><stop offset="1" style="stop-color:rgb(248,145,199);stop-opacity:1"/></linearGradient>
        <linearGradient id="_Linear2" x1="0" y1="0" x2="1" y2="0" gradientUnits="userSpaceOnUse" gradientTransform="matrix(328.724,-70.4852,70.4852,328.724,934.071,609.311)"><stop offset="0" style="stop-color:rgb(0,212,255);stop-opacity:1"/><stop offset="1" style="stop-color:rgb(117,119,230);stop-opacity:1"/></linearGradient>
        <linearGradient id="_Linear3" x1="0" y1="0" x2="1" y2="0" gradientUnits="userSpaceOnUse" gradientTransform="matrix(-181.695,-299.171,299.171,-181.695,1413.61,822.068)"><stop offset="0" style="stop-color:rgb(132,161,222);stop-opacity:1"/><stop offset="1" style="stop-color:rgb(92,57,243);stop-opacity:1"/></linearGradient>
    </defs>
</svg>
