<?xml version="1.0" encoding="UTF-8" standalone="no"?>
<!DOCTYPE svg PUBLIC "-//W3C//DTD SVG 1.1//EN" "http://www.w3.org/Graphics/SVG/1.1/DTD/svg11.dtd">
<svg width="100%" height="100%" viewBox="0 0 292 391" version="1.1" xmlns="http://www.w3.org/2000/svg" xmlns:xlink="http://www.w3.org/1999/xlink" xml:space="preserve" xmlns:serif="http://www.serif.com/" style="fill-rule:evenodd;clip-rule:evenodd;stroke-linecap:round;stroke-linejoin:round;stroke-miterlimit:1.5;">
    <g transform="matrix(1,0,0,1,-829.758,-469.006)">
        <g>
            <g transform="matrix(0.841267,0,0,0.85545,156.599,117.716)">
                <ellipse cx="981.021" cy="629.05" rx="145.194" ry="161.05" style="fill:url(#_Linear1);"/>
            </g>
            <g>
                <g transform="matrix(0.998534,-0.0541281,0.0541281,0.998534,-43.8505,74.5987)">
                    <path d="M1011.36,692.354L1069.23,690.4C1069.23,690.4 1067.4,721.139 1046.01,722.809C1023.44,724.571 1016.1,711.214 1011.36,692.354Z" style="fill:white;"/>
                </g>
                <g transform="matrix(0.995116,0.0987144,-0.0987144,0.995116,-28.0641,-82.3827)">
                    <path d="M1011.36,692.354L1069.23,690.4C1069.23,690.4 1067.4,721.139 1046.01,722.809C1023.44,724.571 1016.1,711.214 1011.36,692.354Z" style="fill:white;"/>
                </g>
                <g transform="matrix(0.827065,0,0,1,162.369,0)">
                    <ellipse cx="945.38" cy="728.362" rx="6.477" ry="5.071" style="fill:rgb(100,54,23);"/>
                </g>
                <g transform="matrix(0.827065,0,0,1,247.466,0)">
                    <ellipse cx="945.38" cy="728.362" rx="6.477" ry="5.071" style="fill:rgb(100,54,23);"/>
                </g>
                <g transform="matrix(0.0363485,-0.642651,-1.00685,-0.0569477,1641.1,1402.99)">
                    <path d="M1015.56,703.425C1012.12,710.525 1012.65,720.084 1012.65,734.121C1012.65,745.123 1014.18,752.84 1015.25,759.546C1015.28,759.732 1015.74,762.669 1015.74,762.669L1010.72,761.989C1010.72,761.989 1019.64,767.179 1019.89,768.117C1018.48,757.689 1016.43,747.527 1016.15,734.36C1015.88,721.221 1016.03,711.401 1015.56,703.425Z" style="fill:rgb(96,96,96);"/>
                </g>
                <g transform="matrix(-0.0363485,-0.642651,1.00685,-0.0569477,330.696,1402.99)">
                    <path d="M1015.56,703.425C1012.12,710.525 1012.65,720.084 1012.65,734.121C1012.65,745.123 1014.18,752.84 1015.25,759.546C1015.28,759.732 1015.74,762.669 1015.74,762.669L1010.72,761.989C1010.72,761.989 1019.64,767.179 1019.89,768.117C1018.48,757.689 1016.43,747.527 1016.15,734.36C1015.88,721.221 1016.03,711.401 1015.56,703.425Z" style="fill:rgb(96,96,96);"/>
                </g>
            </g>
            <g transform="matrix(2.04651,0,0,1,-967.152,17.3788)">
                <path d="M898.745,568.474L906.645,828.195L897.875,842.386C897.875,842.386 896.942,810.541 893.059,735.84C889.175,661.138 892.987,638.259 892.987,638.259L898.745,568.474Z" style="fill:url(#_Linear2);"/>
            </g>
            <g transform="matrix(-2.04651,0,0,1,2932.43,17.3788)">
                <path d="M898.745,568.474L906.645,828.195L897.875,842.386C897.875,842.386 898.035,814.088 894.151,739.386C890.268,664.685 894.08,641.806 894.08,641.806L898.745,568.474Z" style="fill:url(#_Linear3);"/>
            </g>
            <path d="M887.548,629.05C887.548,629.05 902.889,821.264 906.645,828.195C910.401,835.125 897.875,842.386 897.875,842.386C897.875,842.386 877.763,820.1 873.88,745.399C869.996,670.698 873.808,647.819 873.808,647.819L887.548,629.05Z" style="fill:rgb(124,124,124);"/>
            <g transform="matrix(-1,0,0,1,1965.27,0)">
                <path d="M887.548,629.05C887.548,629.05 902.889,821.264 906.645,828.195C910.401,835.125 897.875,842.386 897.875,842.386C897.875,842.386 877.763,820.1 873.88,745.399C869.996,670.698 873.808,647.819 873.808,647.819L887.548,629.05Z" style="fill:rgb(124,124,124);"/>
            </g>
            <g transform="matrix(1,0,0,1,-0.767467,15.7265)">
                <path d="M884.514,574.195C884.514,574.195 866.556,607.125 861.911,622.876C858.014,636.093 869.785,671.823 869.785,671.823L912.406,676.55L914.422,629.05L917.737,676.285C917.737,676.285 956.453,680.698 985.631,680.925C1014.62,681.15 1046.84,673.923 1046.84,673.923C1046.84,673.923 1045.28,625.519 1046.65,625.519C1048.01,625.519 1052.96,673.723 1052.96,673.723L1097.08,665.536C1097.08,665.536 1107.1,635.195 1102.02,619.938C1096.63,603.754 1075.63,570.126 1075.63,570.126L884.514,574.195Z" style="fill:url(#_Linear4);"/>
            </g>
            <g transform="matrix(0.936081,0,0,1.01203,62.6365,38.8143)">
                <path d="M836.739,585.027C836.739,585.027 832.35,506.477 888.303,468C929.154,439.909 925.373,452.436 940.365,450.093C952.936,448.129 958.176,432.002 983.19,426.54C1008.2,421.077 1064.64,439.251 1075.53,468C1086.43,496.749 1081.75,502.17 1104.92,516.89C1128.09,531.61 1121.18,576.503 1115.4,594.219C1109.62,611.934 1015.99,553.369 983.19,558.644C950.387,563.919 836.739,585.027 836.739,585.027Z" style="fill:rgb(223,113,188);stroke:rgb(194,78,157);stroke-width:1.03px;"/>
            </g>
            <g transform="matrix(1,0,0,1,-0.846103,40.7064)">
                <path d="M862.023,653.145C862.023,653.145 877.317,587.381 981.021,585.853C1084.73,584.325 1104.89,665.404 1104.89,665.404C1104.89,665.404 1119.33,654.72 1121.2,648.736C1123.07,642.753 1118.31,631.875 1117.71,618.608C1117.12,605.342 1122.33,573.719 1121.29,577.293C1120.25,580.866 1080.53,512.728 981.021,517.067C881.517,521.407 835.25,574.507 835.25,574.507C835.25,574.507 837.367,611.152 837.392,617.705C837.403,620.363 827.403,630.257 831.658,640.304C835.912,650.352 862.023,653.145 862.023,653.145Z" style="fill:url(#_Linear5);"/>
            </g>
            <path d="M900.427,579.706C897.227,579.706 894.629,594.228 894.629,612.116C894.629,630.003 897.227,644.525 900.427,644.525C899.467,636.963 898.687,625.044 898.687,612.116C898.687,599.187 899.467,587.268 900.427,579.706Z" style="fill:rgb(194,78,157);"/>
            <g transform="matrix(-1,0,0,1,1957.61,0)">
                <path d="M900.427,579.706C897.227,579.706 894.629,594.228 894.629,612.116C894.629,630.003 897.227,644.525 900.427,644.525C899.467,636.963 898.687,625.044 898.687,612.116C898.687,599.187 899.467,587.268 900.427,579.706Z" style="fill:rgb(194,78,157);"/>
            </g>
            <g transform="matrix(0.9601,0,0,0.90759,69.1121,42.7165)">
                <path d="M900.427,579.706C897.227,579.706 894.629,594.228 894.629,612.116C894.629,630.003 897.227,644.525 900.427,644.525C899.467,636.963 898.687,625.044 898.687,612.116C898.687,599.187 899.467,587.268 900.427,579.706Z" style="fill:rgb(194,78,157);"/>
            </g>
            <g transform="matrix(-0.9601,0,0,0.90759,1888.5,42.7165)">
                <path d="M900.427,579.706C897.227,579.706 894.629,594.228 894.629,612.116C894.629,630.003 897.227,644.525 900.427,644.525C899.467,636.963 898.687,625.044 898.687,612.116C898.687,599.187 899.467,587.268 900.427,579.706Z" style="fill:rgb(194,78,157);"/>
            </g>
            <g transform="matrix(1,0,0,1,-23.5371,15.5655)">
                <path d="M900.427,579.706C897.227,579.706 894.629,594.228 894.629,612.116C894.629,630.003 897.227,644.525 900.427,644.525C899.467,636.963 898.687,625.044 898.687,612.116C898.687,599.187 899.467,587.268 900.427,579.706Z" style="fill:rgb(194,78,157);"/>
            </g>
            <g transform="matrix(-1,0,0,1,1981.15,15.5655)">
                <path d="M900.427,579.706C897.227,579.706 894.629,594.228 894.629,612.116C894.629,630.003 897.227,644.525 900.427,644.525C899.467,636.963 898.687,625.044 898.687,612.116C898.687,599.187 899.467,587.268 900.427,579.706Z" style="fill:rgb(194,78,157);"/>
            </g>
            <g transform="matrix(1,0,0,1,-43.5598,32.4096)">
                <path d="M900.427,579.706C897.227,579.706 894.629,594.228 894.629,612.116C894.629,630.003 897.227,644.525 900.427,644.525C899.467,636.963 898.687,625.044 898.687,612.116C898.687,599.187 899.467,587.268 900.427,579.706Z" style="fill:rgb(194,78,157);"/>
            </g>
            <g transform="matrix(-1,0,0,1,2001.17,32.4096)">
                <path d="M900.427,579.706C897.227,579.706 894.629,594.228 894.629,612.116C894.629,630.003 897.227,644.525 900.427,644.525C899.467,636.963 898.687,625.044 898.687,612.116C898.687,599.187 899.467,587.268 900.427,579.706Z" style="fill:rgb(194,78,157);"/>
            </g>
            <g transform="matrix(2.313,0,0,1.20095,-1292.79,-148.665)">
                <path d="M984.999,739.822L981.934,753.97L984.866,756.515L987.652,753.81L984.999,739.822Z" style="fill:rgb(249,181,141);"/>
            </g>
            <g transform="matrix(1,0,0,1,-15.6643,13.608)">
                <path d="M997.564,455.898C997.564,455.898 981.021,544.318 981.021,582.212C981.021,591.343 988.434,598.755 997.564,598.755C1006.7,598.755 1014.11,591.343 1014.11,582.212C1014.11,544.318 997.564,455.898 997.564,455.898Z" style="fill:url(#_Linear6);stroke:rgb(105,186,201);stroke-width:1px;"/>
            </g>
            <g transform="matrix(8.42716e-17,-1.37626,1.40066,8.57655e-17,-114.116,2099.94)">
                <path d="M971.617,768C969.507,768 967.794,775.55 967.794,784.849C967.794,794.149 969.507,801.699 971.617,801.699C970.035,800.295 968.75,793.228 968.75,784.849C968.75,776.471 970.035,769.404 971.617,768Z" style="fill:rgb(249,181,141);"/>
            </g>
            <g transform="matrix(6.12323e-17,1,-1,6.12323e-17,1768.85,-335.338)">
                <path d="M1020.31,700.264C1013.36,703.086 1007.71,717.29 1007.71,734.132C1007.71,750.973 1013.36,765.178 1020.31,768C1017.99,759.533 1016.11,747.272 1016.11,734.132C1016.11,720.992 1017.99,708.731 1020.31,700.264Z" style="fill:rgb(96,96,96);"/>
            </g>
            <g transform="matrix(6.12323e-17,1,-1,6.12323e-17,1668.06,-335.338)">
                <path d="M1020.31,700.264C1013.36,703.086 1007.71,717.29 1007.71,734.132C1007.71,750.973 1013.36,765.178 1020.31,768C1017.99,759.533 1016.11,747.272 1016.11,734.132C1016.11,720.992 1017.99,708.731 1020.31,700.264Z" style="fill:rgb(96,96,96);"/>
            </g>
        </g>
    </g>
    <defs>
        <linearGradient id="_Linear1" x1="0" y1="0" x2="1" y2="0" gradientUnits="userSpaceOnUse" gradientTransform="matrix(215.868,-2.53482,2.57756,212.289,879.099,676.767)"><stop offset="0" style="stop-color:rgb(242,157,107);stop-opacity:1"/><stop offset="0.1" style="stop-color:rgb(247,185,148);stop-opacity:1"/><stop offset="0.22" style="stop-color:rgb(252,214,191);stop-opacity:1"/><stop offset="0.5" style="stop-color:rgb(255,228,212);stop-opacity:1"/><stop offset="0.79" style="stop-color:rgb(255,207,179);stop-opacity:1"/><stop offset="0.9" style="stop-color:rgb(255,163,110);stop-opacity:1"/><stop offset="1" style="stop-color:rgb(255,120,44);stop-opacity:1"/></linearGradient>
        <linearGradient id="_Linear2" x1="0" y1="0" x2="1" y2="0" gradientUnits="userSpaceOnUse" gradientTransform="matrix(6.56617e-15,-219.454,107.234,1.34377e-14,1036.41,798.443)"><stop offset="0" style="stop-color:rgb(173,172,172);stop-opacity:1"/><stop offset="1" style="stop-color:rgb(62,62,62);stop-opacity:1"/></linearGradient>
        <linearGradient id="_Linear3" x1="0" y1="0" x2="1" y2="0" gradientUnits="userSpaceOnUse" gradientTransform="matrix(-6.56617e-15,-219.454,-107.234,1.34377e-14,869.072,798.443)"><stop offset="0" style="stop-color:rgb(173,172,172);stop-opacity:1"/><stop offset="1" style="stop-color:rgb(62,62,62);stop-opacity:1"/></linearGradient>
        <linearGradient id="_Linear4" x1="0" y1="0" x2="1" y2="0" gradientUnits="userSpaceOnUse" gradientTransform="matrix(-1.12233,-92.7733,92.7733,-1.12233,987.962,675.313)"><stop offset="0" style="stop-color:rgb(128,128,128);stop-opacity:1"/><stop offset="1" style="stop-color:rgb(77,77,77);stop-opacity:1"/></linearGradient>
        <linearGradient id="_Linear5" x1="0" y1="0" x2="1" y2="0" gradientUnits="userSpaceOnUse" gradientTransform="matrix(8.26371e-15,134.957,-134.957,8.26371e-15,982.188,540.89)"><stop offset="0" style="stop-color:rgb(249,140,199);stop-opacity:1"/><stop offset="1" style="stop-color:rgb(212,54,162);stop-opacity:1"/></linearGradient>
        <linearGradient id="_Linear6" x1="0" y1="0" x2="1" y2="0" gradientUnits="userSpaceOnUse" gradientTransform="matrix(8.73917e-15,142.722,-142.722,8.73917e-15,997.564,455.898)"><stop offset="0" style="stop-color:rgb(225,250,255);stop-opacity:1"/><stop offset="0.64" style="stop-color:rgb(207,240,247);stop-opacity:1"/><stop offset="0.83" style="stop-color:rgb(160,215,226);stop-opacity:1"/><stop offset="1" style="stop-color:rgb(105,186,201);stop-opacity:1"/></linearGradient>
    </defs>
</svg>
