<svg width="80" height="80" viewBox="0 0 80 80" fill="none" xmlns="http://www.w3.org/2000/svg">
<path d="M2.5 2.5V77.5H77.5V2.5H2.5ZM43.315 60.995C43.315 68.295 39.035 71.615 32.79 71.615C27.155 71.615 23.8825 68.695 22.22 65.175L27.96 61.7C29.0675 63.64 30.075 65.3 32.49 65.3C34.805 65.3 36.265 64.4175 36.265 60.875V36.925H43.315V60.995ZM59.98 71.615C53.435 71.615 49.205 68.495 47.1425 64.415L52.88 61.0975C54.39 63.5425 56.355 65.3725 59.83 65.3725C62.7475 65.3725 64.5875 63.9125 64.5875 61.8825C64.5875 59.4675 62.6725 58.6075 59.4525 57.22L57.7025 56.445C52.6175 54.2825 49.245 51.5625 49.245 45.82C49.245 40.5375 53.255 36.5075 59.565 36.5075C64.045 36.5075 67.265 38.07 69.585 42.1425L64.11 45.655C62.91 43.505 61.595 42.63 59.58 42.63C57.52 42.63 56.2 43.935 56.2 45.655C56.2 47.785 57.5 48.625 60.525 49.93L62.2825 50.705C68.275 53.255 71.65 55.88 71.65 61.78C71.6675 68.14 66.685 71.605 59.9875 71.605L59.98 71.615Z" fill="#FFCD4D"/>
</svg>
