<svg width="80" height="80" viewBox="0 0 80 80" fill="none" xmlns="http://www.w3.org/2000/svg">
<path d="M40 32.8651C36.0675 32.8651 32.865 36.0676 32.865 40.0001C32.865 43.9326 36.0675 47.1351 40 47.1351C43.9325 47.1351 47.135 43.9326 47.135 40.0001C47.135 36.0676 43.9325 32.8651 40 32.8651ZM20.025 54.1801L18.45 53.7901C6.73 50.8201 0 45.7951 0 39.9876C0 34.1801 6.7325 29.1551 18.45 26.1851L20.025 25.7951L20.4675 27.3576C21.6564 31.4501 23.1764 35.4391 25.0125 39.2851L25.35 39.9876L25.0125 40.7026C23.1726 44.5469 21.6525 48.5362 20.4675 52.6301L20.025 54.1801ZM17.7225 29.8301C8.815 32.3301 3.3475 36.1701 3.3475 39.9876C3.3475 43.8051 8.8175 47.6301 17.7225 50.1451C18.8141 46.6767 20.132 43.2836 21.6675 39.9876C20.1298 36.6925 18.8119 33.2993 17.7225 29.8301ZM59.975 54.1801L59.5325 52.6176C58.3456 48.5284 56.8256 44.5434 54.9875 40.7026L54.65 39.9876L54.9875 39.2726C56.8274 35.4283 58.3475 31.439 59.5325 27.3451L59.975 25.7951L61.55 26.1851C73.27 29.1551 80 34.1801 80 39.9876C80 45.7951 73.2675 50.8201 61.55 53.7901L59.975 54.1801ZM58.3325 39.9876C59.8731 43.2814 61.1911 46.6749 62.2775 50.1451C71.1975 47.6326 76.6525 43.8051 76.6525 39.9876C76.6525 36.1701 71.1825 32.3451 62.2775 29.8301C61.1833 33.2976 59.8655 36.6905 58.3325 39.9876ZM17.695 29.8176L17.2525 28.2551C13.9575 16.6401 14.96 8.30759 20 5.40259C24.9475 2.55009 32.8775 5.92259 41.1975 14.4651L42.33 15.6251L41.1975 16.7851C38.2429 19.8591 35.5432 23.1684 33.125 26.6801L32.67 27.3176L31.8875 27.3826C27.6337 27.7183 23.4141 28.3981 19.27 29.4151L17.695 29.8176ZM24.0225 7.72259C23.125 7.72259 22.33 7.90509 21.665 8.29509C18.3575 10.2101 17.7725 16.8501 20.05 25.8076C23.6036 25.0127 27.2055 24.4515 30.8325 24.1276C32.9206 21.1535 35.204 18.3215 37.6675 15.6501C32.4725 10.5851 27.55 7.72009 24.0225 7.72009V7.72259ZM55.99 75.5851C55.9775 75.5851 55.9775 75.5851 55.99 75.5851C51.2375 75.5851 45.13 72.0176 38.8025 65.5076L37.67 64.3476L38.8025 63.1876C41.7571 60.1135 44.4568 56.8043 46.875 53.2926L47.3175 52.6551L48.1 52.5776C52.3593 52.2531 56.584 51.5732 60.73 50.5451L62.305 50.1551L62.7475 51.7176C66.0425 63.3326 65.04 71.6526 60 74.5551C58.7815 75.2554 57.3952 75.6106 55.99 75.5826V75.5851ZM42.33 64.3226C47.525 69.3876 52.4475 72.2526 55.975 72.2526H55.9875C56.8725 72.2526 57.6675 72.0576 58.3325 71.6801C61.64 69.7651 62.24 63.1251 59.9475 54.1676C56.3946 54.9633 52.7923 55.5204 49.165 55.8351C47.077 58.8132 44.7936 61.6494 42.33 64.3251V64.3226ZM62.305 29.8176L60.73 29.4151C56.581 28.4015 52.3575 27.7218 48.1 27.3826L47.3175 27.3176L46.875 26.6801C44.4568 23.1684 41.7571 19.8591 38.8025 16.7851L37.67 15.6251L38.8025 14.4651C47.1225 5.92259 55.0525 2.55009 60 5.40259C65.04 8.30509 66.0425 16.6401 62.7475 28.2551L62.305 29.8176ZM49.1675 24.1276C52.7946 24.4506 56.3965 25.0118 59.95 25.8076C62.2425 16.8501 61.6425 10.2076 58.335 8.29509C55.04 6.39509 48.8425 9.31009 42.3325 15.6526C44.7893 18.3297 47.0723 21.1613 49.1675 24.1301V24.1276ZM24.0225 75.5851C22.615 75.6101 21.2225 75.2601 20 74.5576C14.96 71.6551 13.9575 63.3326 17.2525 51.7201L17.695 50.1576L19.27 50.5476C23.125 51.5251 27.37 52.2001 31.8875 52.5801L32.67 52.6576L33.1125 53.2951C35.5307 56.8068 38.2304 60.116 41.185 63.1901L42.3175 64.3501L41.185 65.5101C34.87 72.0201 28.7625 75.5876 24.0225 75.5876V75.5851ZM20.0525 54.1676C17.76 63.1251 18.36 69.7676 21.6675 71.6801C24.9625 73.5551 31.1475 70.6651 37.67 64.3226C35.2064 61.6469 32.923 58.8107 30.835 55.8326C27.2075 55.5188 23.6053 54.9618 20.0525 54.1651V54.1676ZM40 56.2626C37.2525 56.2626 34.44 56.1451 31.615 55.9101L30.8325 55.8451L30.3775 55.1951C28.7818 52.9023 27.283 50.5435 25.885 48.1251C24.4841 45.7065 23.1855 43.2302 21.9925 40.7026L21.655 39.9876L21.9925 39.2726C24.3826 34.2185 27.1872 29.3711 30.3775 24.7801L30.8325 24.1301L31.615 24.0651C37.1951 23.5951 42.8049 23.5951 48.385 24.0651L49.1675 24.1301L49.6225 24.7801C52.817 29.3685 55.6217 34.2163 58.0075 39.2726L58.345 39.9876L58.0075 40.7026C55.6265 45.7614 52.8215 50.6096 49.6225 55.1951L49.1675 55.8451L48.385 55.9101C45.5961 56.1435 42.7987 56.2611 40 56.2626ZM32.6825 52.6426C37.605 53.0201 42.395 53.0201 47.33 52.6426C50.0823 48.6124 52.5283 44.3813 54.6475 39.9851C52.5373 35.5816 50.0865 31.3496 47.3175 27.3276C42.4465 26.9501 37.5535 26.9501 32.6825 27.3276C29.9115 31.3483 27.4607 35.5805 25.3525 39.9851C27.4723 44.3835 29.9227 48.6148 32.6825 52.6426Z" fill="#18C2FB"/>
</svg>
