<svg width="80" height="80" viewBox="0 0 80 80" fill="none" xmlns="http://www.w3.org/2000/svg">
<path d="M40 0C17.915 0 0 17.915 0 40C0 62.085 17.915 80 40 80C62.085 80 80 62.085 80 40C80 17.915 62.085 0 40 0Z" fill="#368FB9"/>
<path d="M63.5361 54.3937C61.0651 54.9806 59.8142 55.5212 56.7564 57.5134C51.9842 60.6022 46.7639 62.0384 46.7639 62.0384C46.7639 62.0384 46.3317 62.6872 45.0804 62.9806C42.9186 63.5056 34.7795 63.9537 34.0383 63.969C32.0458 63.9847 30.8258 63.4597 30.4861 62.6409C29.4514 60.17 31.9686 59.0887 31.9686 59.0887C31.9686 59.0887 31.4126 58.749 31.0883 58.44C30.7948 58.1465 30.4861 57.56 30.3933 57.7759C30.0073 58.7181 29.8064 61.0194 28.7717 62.054C27.3508 63.4903 24.6636 63.0115 23.0729 62.1775C21.3276 61.2509 23.1964 59.0734 23.1964 59.0734C23.1964 59.0734 22.2542 59.6294 21.4976 58.4865C20.8179 57.4365 20.1851 55.6447 20.3548 53.4365C20.5401 50.919 23.3508 48.4787 23.3508 48.4787C23.3508 48.4787 22.8567 44.7569 24.4783 40.9422C25.9454 37.4672 29.8992 34.6719 29.8992 34.6719C29.8992 34.6719 26.5786 30.9962 27.8142 27.6912C28.6173 25.5287 28.9417 25.5444 29.2042 25.4519C30.1308 25.0965 31.0264 24.7103 31.6908 23.9847C35.0111 20.4015 39.2426 21.0809 39.2426 21.0809C39.2426 21.0809 41.2504 14.9809 43.1039 16.17C43.6751 16.5406 45.7292 21.1119 45.7292 21.1119C45.7292 21.1119 47.9223 19.83 48.1695 20.3087C49.4976 22.8881 49.652 27.8147 49.0651 30.8109C48.0767 35.7528 45.6058 38.4094 44.6173 40.0772C44.3858 40.4634 47.2736 41.6834 49.0961 46.7334C50.7795 51.3512 49.2814 55.2278 49.5439 55.6603C49.5901 55.7375 49.6058 55.7684 49.6058 55.7684C49.6058 55.7684 51.5361 55.9228 55.4126 53.5291C57.482 52.2472 59.9376 50.8109 62.7329 50.78C65.4361 50.7334 65.5748 53.8997 63.5361 54.3937V54.3937ZM67.212 52.1234C66.9339 49.9306 65.0808 48.4172 62.7023 48.4478C59.1501 48.4941 56.1695 50.3322 54.1926 51.5522C53.4204 52.0309 52.7564 52.3862 52.1848 52.6487C52.3083 50.8572 52.2004 48.5097 51.2736 45.9306C50.1461 42.8415 48.6329 40.9422 47.5517 39.8456C48.8026 38.0231 50.517 35.3669 51.3198 31.2587C52.0148 27.7528 51.7989 22.3012 50.2079 19.2431C49.8836 18.6256 49.3433 18.1775 48.6636 17.9922C48.3854 17.915 47.8604 17.7606 46.8258 18.054C45.2661 14.8262 44.7254 14.4865 44.3083 14.2084C43.4436 13.6525 42.4242 13.5291 41.4667 13.8841C40.1848 14.3475 39.0886 15.5831 38.0536 17.7759C37.9046 18.0855 37.7656 18.3997 37.6367 18.7181C35.6751 18.8572 32.5864 19.5675 29.9764 22.3937C29.652 22.7491 29.0189 23.0116 28.3545 23.2587H28.3701C27.0111 23.7375 26.3933 24.8494 25.6367 26.8572C24.5864 29.6678 25.6673 32.4322 26.7329 34.2241C25.2814 35.5212 23.3508 37.5906 22.3317 40.0153C21.0651 43.0115 20.9261 45.9459 20.9723 47.5366C19.8914 48.6797 18.2236 50.8262 18.0379 53.2356C17.7911 56.6022 19.0111 58.8881 19.5517 59.7219C19.7061 59.969 19.8761 60.17 20.0611 60.3706C19.9995 60.7875 19.9842 61.2356 20.0767 61.6987C20.2776 62.78 20.957 63.6603 21.9917 64.2162C24.0304 65.2975 26.872 65.7606 29.0651 64.664C29.8526 65.4981 31.2892 66.3012 33.8992 66.3012H34.0536C34.7176 66.3012 43.1501 65.8534 45.6058 65.2512C46.7023 64.9884 47.4589 64.525 47.9533 64.1081C49.5283 63.6137 53.8836 62.1312 57.9917 59.475C60.8951 57.5906 61.8992 57.189 64.0614 56.664C66.1614 56.1547 67.4745 54.2394 67.212 52.1234V52.1234Z" fill="white"/>
</svg>
