<?xml version="1.0" encoding="UTF-8" standalone="no"?>
<!DOCTYPE svg PUBLIC "-//W3C//DTD SVG 1.1//EN" "http://www.w3.org/Graphics/SVG/1.1/DTD/svg11.dtd">
<svg width="100%" height="100%" viewBox="0 0 460 333" version="1.1" xmlns="http://www.w3.org/2000/svg" xmlns:xlink="http://www.w3.org/1999/xlink" xml:space="preserve" xmlns:serif="http://www.serif.com/" style="fill-rule:evenodd;clip-rule:evenodd;stroke-linejoin:round;stroke-miterlimit:2;">
    <g transform="matrix(1,0,0,1,-837.765,-966.488)">
        <g>
            <g transform="matrix(1,0,0,1,0.0342312,0)">
                <path d="M1123.71,1136.38L850.183,1136.38L850.183,1150.67C850.183,1153.38 852.38,1155.58 855.091,1155.58C888.749,1155.58 1085.15,1155.58 1118.8,1155.58C1121.51,1155.58 1123.71,1153.38 1123.71,1150.67C1123.71,1144.99 1123.71,1136.38 1123.71,1136.38Z" style="fill:rgb(207,207,207);"/>
            </g>
            <g>
                <g transform="matrix(-0.897154,1.75339e-17,1.75339e-17,-0.753979,1913.32,1851.21)">
                    <path d="M1196.94,1142.22C1197.44,1150.28 1195.09,1158.22 1190.47,1164.13C1185.85,1170.05 1179.37,1173.41 1172.58,1173.41L892.489,1173.41C885.701,1173.41 879.219,1170.05 874.597,1164.13C869.974,1158.22 867.629,1150.28 868.122,1142.22C871.912,1080.37 880.017,948.074 880.017,948.074L1185.05,948.074C1185.05,948.074 1193.16,1080.37 1196.94,1142.22Z" style="fill:url(#_Linear1);"/>
                </g>
                <g transform="matrix(1,0,0,0.696832,-5.97114,314.653)">
                    <circle cx="992.952" cy="1074.62" r="23.183" style="fill:rgb(86,86,86);"/>
                </g>
                <g transform="matrix(1,0,0,1,-8.78244,13.9971)">
                    <path d="M983.807,1025.65L990.054,1041.01L977.561,1041.01L983.807,1025.65Z" style="fill:rgb(86,86,86);"/>
                </g>
                <g transform="matrix(1,0,0,1,15.721,13.9971)">
                    <path d="M983.807,1025.65L990.054,1041.01L977.561,1041.01L983.807,1025.65Z" style="fill:rgb(86,86,86);"/>
                </g>
            </g>
            <g>
                <g transform="matrix(0.914901,0,0,1.11444,83.0976,-145.987)">
                    <path d="M1035.12,1203.22L1000.99,1221.08L1000.99,1269.55L1058.79,1254.9L1035.12,1203.22Z" style="fill:rgb(175,141,249);"/>
                </g>
                <g transform="matrix(0.0153612,1.09281,-0.679926,0.00678098,1791.51,238.424)">
                    <path d="M953.82,1318.88C955.796,1333.18 953.627,1348.12 947.923,1359.49C942.219,1370.86 933.599,1377.43 924.494,1377.34C920.115,1377.3 915.629,1377.26 911.202,1377.21C902.096,1377.13 893.491,1370.39 887.814,1358.91C882.138,1347.43 880.004,1332.45 882.015,1318.19C883.2,1311.66 884.107,1305.57 884.618,1300.6C886.84,1278.98 887.248,1234 887.248,1234C887.248,1234 879.067,1212.84 878.972,1203.12C878.879,1193.64 886.133,1185.75 886.133,1185.75L883.348,1178.11L932.776,1171.58L935.575,1186.87C935.575,1186.87 946.071,1262.81 953.82,1318.88Z" style="fill:rgb(175,141,249);"/>
                </g>
                <g transform="matrix(1,0,0,1.19047,-34.3462,-242.287)">
                    <path d="M931.113,1221.67C923.055,1228.2 916.513,1240.2 916.513,1253.47C916.513,1266.74 923.055,1278.74 931.113,1285.27L931.113,1221.67Z" style="fill:url(#_Linear2);"/>
                </g>
                <g transform="matrix(1.40698,-0.0245255,0.0420337,0.98389,-480.149,38.2954)">
                    <path d="M937.499,1224.21C933.23,1224.21 929.764,1239.12 929.764,1257.49C929.764,1275.85 933.23,1290.76 937.499,1290.76C934.298,1287.98 931.698,1274.03 931.698,1257.49C931.698,1240.94 934.298,1226.99 937.499,1224.21Z" style="fill:rgb(133,100,206);"/>
                </g>
                <g transform="matrix(0.977575,-0.210589,-0.210589,-0.977575,282.105,2611.66)">
                    <path d="M879.67,1164.74C879.67,1164.74 875.563,1166.63 872.391,1177.51C868.195,1191.89 873.396,1224.08 884.008,1231.44C902.32,1244.13 946.457,1207.16 954.4,1205.82C969.919,1203.19 991.923,1214.4 994.717,1213.81C997.42,1213.23 991.192,1222.25 987.83,1223.95C980.96,1227.43 962.564,1221 962.564,1221L906.668,1237.65C906.668,1237.65 898.092,1241.22 891.132,1240.6C883.17,1239.89 865.484,1231.55 862.528,1216.53C860.657,1207.03 856.904,1194.59 859.546,1184.21C863.405,1169.06 879.67,1164.74 879.67,1164.74Z" style="fill:url(#_Linear3);"/>
                </g>
            </g>
            <g transform="matrix(0.862366,-0.591258,0.673072,0.981693,-508.42,693.812)">
                <path d="M1207.47,1083.51C1207.47,1067.8 1199.2,1052.98 1185.06,1043.37C1170.92,1033.76 1152.51,1030.43 1135.2,1034.37C1056.78,1052.21 942.597,1078.18 942.597,1078.18L928.522,1128.37C928.522,1128.37 1065.86,1132.32 1147.8,1134.67C1163.44,1135.12 1178.63,1129.98 1189.87,1120.41C1201.12,1110.85 1207.47,1097.69 1207.47,1083.94C1207.47,1083.8 1207.47,1083.65 1207.47,1083.51Z" style="fill:url(#_Linear4);"/>
            </g>
        </g>
    </g>
    <defs>
        <linearGradient id="_Linear1" x1="0" y1="0" x2="1" y2="0" gradientUnits="userSpaceOnUse" gradientTransform="matrix(-258.106,-173.714,145.991,-307.119,1163.59,1144.76)"><stop offset="0" style="stop-color:rgb(255,219,248);stop-opacity:1"/><stop offset="1" style="stop-color:rgb(200,130,255);stop-opacity:1"/></linearGradient>
        <linearGradient id="_Linear2" x1="0" y1="0" x2="1" y2="0" gradientUnits="userSpaceOnUse" gradientTransform="matrix(-17.8241,-2.23817e-13,2.23817e-13,-17.8241,924.991,1253.47)"><stop offset="0" style="stop-color:rgb(175,141,249);stop-opacity:1"/><stop offset="1" style="stop-color:rgb(133,100,206);stop-opacity:1"/></linearGradient>
        <linearGradient id="_Linear3" x1="0" y1="0" x2="1" y2="0" gradientUnits="userSpaceOnUse" gradientTransform="matrix(3.44119,14.1409,14.1409,-3.44119,942.483,1218.84)"><stop offset="0" style="stop-color:rgb(175,141,249);stop-opacity:1"/><stop offset="1" style="stop-color:rgb(133,100,206);stop-opacity:1"/></linearGradient>
        <linearGradient id="_Linear4" x1="0" y1="0" x2="1" y2="0" gradientUnits="userSpaceOnUse" gradientTransform="matrix(-14.6414,-102.635,116.837,-12.8617,1081.01,1121.46)"><stop offset="0" style="stop-color:rgb(87,100,124);stop-opacity:1"/><stop offset="1" style="stop-color:rgb(34,52,84);stop-opacity:1"/></linearGradient>
    </defs>
</svg>
