<svg width="40" height="40" viewBox="0 0 40 40" fill="none" xmlns="http://www.w3.org/2000/svg">
<path d="M20.0313 19.8938H19.9687C17.4875 19.8938 15.3021 19.2625 14.0083 20.4521C13.6568 20.7644 13.3768 21.1488 13.1873 21.5792C12.9979 22.0095 12.9034 22.4757 12.9104 22.9458C12.9104 26.8042 16 27.2792 19.9708 27.2792H20.0313C24 27.2792 27.0917 26.8021 27.0917 22.9458C27.0917 22.0229 26.7667 21.1625 25.9937 20.4521C24.6979 19.2625 22.5125 19.8938 20.0313 19.8938V19.8938ZM16.6521 25.1667C15.8958 25.1667 15.2854 24.3167 15.2854 23.2708C15.2854 22.225 15.8958 21.3792 16.6521 21.3792C17.4083 21.3792 18.0208 22.225 18.0208 23.2708C18.0229 24.3167 17.4104 25.1667 16.6521 25.1667ZM23.3458 25.1667C22.5896 25.1667 21.9771 24.3167 21.9771 23.2708C21.9771 22.225 22.5896 21.3792 23.3458 21.3792C24.1 21.3792 24.7125 22.225 24.7125 23.2708C24.7146 24.3167 24.1021 25.1667 23.3458 25.1667ZM20 0C8.95417 0 0 8.95417 0 20C0 31.0458 8.95417 40 20 40C31.0458 40 40 31.0458 40 20C40 8.95417 31.0458 0 20 0ZM21.825 28.2062C21.4667 28.2062 20.7542 28.2062 20 28.2104C19.2458 28.2062 18.5333 28.2062 18.175 28.2062C16.5917 28.2062 10.3167 28.0833 10.3167 20.5208C10.3167 18.7833 10.9125 17.5104 11.8896 16.4479C11.7354 16.0646 11.7271 13.8812 12.5562 11.7896C12.5562 11.7896 14.4646 11.9979 17.35 13.9792C17.9521 13.8104 18.9771 13.725 20 13.725C21.0229 13.725 22.0458 13.8104 22.6521 13.9771C25.5375 11.9958 27.4458 11.7875 27.4458 11.7875C28.275 13.8792 28.2687 16.0646 28.1125 16.4458C29.0896 17.5083 29.6854 18.7812 29.6854 20.5187C29.6833 28.0854 23.4083 28.2062 21.825 28.2062V28.2062Z" fill="white"/>
</svg>
