<svg width="80" height="80" viewBox="0 0 80 80" fill="none" xmlns="http://www.w3.org/2000/svg">
<g clip-path="url(#clip0)">
<path d="M34.8 0L2.68422e-09 60.2767V77.6C-2.98903e-05 78.2325 0.249621 78.8394 0.694674 79.2889C1.13973 79.7383 1.7442 79.9939 2.37667 80H35.7867L19 50.9233L48.4 0H34.8ZM52 0L35.8 28.06L48.1933 49.5233H80V2.39333C79.9982 1.75797 79.7446 1.14923 79.2947 0.700585C78.8448 0.251939 78.2354 -2.45125e-06 77.6 0L52 0ZM34 31.1767L27.12 43.0933C26.7435 43.7461 26.5453 44.4864 26.5453 45.24C26.5453 45.9936 26.7435 46.7339 27.12 47.3867C27.8867 48.72 29.3067 49.52 30.8433 49.52H44.5933L34 31.1767ZM23.5933 52.6433L39.3867 80H77.6233C78.2546 79.9939 78.8581 79.7392 79.303 79.2912C79.7478 78.8432 79.9983 78.238 80 77.6067V52.64L23.5933 52.6433Z" fill="#5F9CE3"/>
</g>
<defs>
<clipPath id="clip0">
<rect width="80" height="80" fill="white"/>
</clipPath>
</defs>
</svg>
