<?xml version="1.0" encoding="UTF-8" standalone="no"?>
<!DOCTYPE svg PUBLIC "-//W3C//DTD SVG 1.1//EN" "http://www.w3.org/Graphics/SVG/1.1/DTD/svg11.dtd">
<svg width="100%" height="100%" viewBox="0 0 1037 624" version="1.1" xmlns="http://www.w3.org/2000/svg" xmlns:xlink="http://www.w3.org/1999/xlink" xml:space="preserve" xmlns:serif="http://www.serif.com/" style="fill-rule:evenodd;clip-rule:evenodd;stroke-linejoin:round;stroke-miterlimit:2;">
    <g transform="matrix(1,0,0,1,-466.54,-672.368)">
        <g>
            <g transform="matrix(1,-3.58135e-17,3.58135e-17,-1.29244,-67.5186,2555.48)">
                <path d="M1301.01,1104.35C1324.31,1116.77 1332.74,1140.33 1321.03,1160.26C1309.31,1180.19 1280.81,1190.76 1253.39,1185.33C1146.84,1164.25 1054.5,1145.98 1054.5,1145.98C1054.5,1145.98 958.036,1165.69 848.167,1188.14C820.835,1193.73 792.257,1183.37 780.316,1163.54C768.375,1143.72 776.5,1120.12 799.606,1107.52C875.501,1066.13 938.072,1032.01 938.072,1032.01L1168.09,1033.46C1168.09,1033.46 1227.68,1065.24 1301.01,1104.35Z" style="fill:rgb(71,83,104);"/>
            </g>
            <g transform="matrix(0.788506,0,0,1,210.165,-17.4162)">
                <path d="M1129.74,883.78C1129.74,819.836 1064,768 982.901,768C982.901,768 982.9,768 982.9,768C901.805,768 836.065,819.836 836.065,883.78C836.065,968.554 836.065,1068.85 836.065,1068.85L1129.74,1068.85L1129.74,883.78Z" style="fill:url(#_Linear1);"/>
            </g>
            <path d="M933.841,781.301C933.841,781.301 931.017,861.24 933.926,863.946C936.834,866.652 1044.38,863.743 1044.38,863.743L1034.19,779.186L1049.14,769.792L1056.39,774.523C1056.39,774.523 1074.96,861.154 1073.6,860.86C1072.23,860.566 1086.89,882.073 1086.89,882.073L1100.97,1051.44L866.212,1051.44L878.853,884.356L899.971,859.918L908.877,777.841L922.798,768L933.841,781.301Z" style="fill:rgb(71,83,104);"/>
            <g transform="matrix(-1,0,0,1,1959.91,-2.77637)">
                <g transform="matrix(0.914901,0,0,1.11444,83.0976,-145.987)">
                    <path d="M1035.12,1203.22L1000.99,1221.08L1000.99,1269.55L1058.79,1254.9L1035.12,1203.22Z" style="fill:rgb(105,186,201);"/>
                </g>
                <g transform="matrix(0.0153612,1.09281,-0.679926,0.00678098,1791.51,238.424)">
                    <path d="M953.82,1318.88C955.796,1333.18 953.627,1348.12 947.923,1359.49C942.219,1370.86 933.599,1377.43 924.494,1377.34C920.115,1377.3 915.629,1377.26 911.202,1377.21C902.096,1377.13 893.491,1370.39 887.814,1358.91C882.138,1347.43 880.004,1332.45 882.015,1318.19C883.2,1311.66 884.107,1305.57 884.618,1300.6C886.84,1278.98 887.248,1234 887.248,1234C887.248,1234 879.067,1212.84 878.972,1203.12C878.879,1193.64 886.133,1185.75 886.133,1185.75L883.348,1178.11L932.776,1171.58L935.575,1186.87C935.575,1186.87 946.071,1262.81 953.82,1318.88Z" style="fill:rgb(105,186,201);"/>
                </g>
                <g transform="matrix(1,0,0,1.19047,-34.3462,-242.287)">
                    <path d="M931.113,1221.67C923.055,1228.2 916.513,1240.2 916.513,1253.47C916.513,1266.74 923.055,1278.74 931.113,1285.27L931.113,1221.67Z" style="fill:url(#_Linear2);"/>
                </g>
                <g transform="matrix(1.40698,-0.0245255,0.0420337,0.98389,-480.149,38.2954)">
                    <path d="M937.499,1224.21C933.23,1224.21 929.764,1239.12 929.764,1257.49C929.764,1275.85 933.23,1290.76 937.499,1290.76C934.298,1287.98 931.698,1274.03 931.698,1257.49C931.698,1240.94 934.298,1226.99 937.499,1224.21Z" style="fill:rgb(63,143,158);"/>
                </g>
                <g transform="matrix(0.977575,-0.210589,-0.210589,-0.977575,282.105,2611.66)">
                    <path d="M879.67,1164.74C879.67,1164.74 875.563,1166.63 872.391,1177.51C868.195,1191.89 873.396,1224.08 884.008,1231.44C902.32,1244.13 946.457,1207.16 954.4,1205.82C969.919,1203.19 991.923,1214.4 994.717,1213.81C997.42,1213.23 991.192,1222.25 987.83,1223.95C980.96,1227.43 962.564,1221 962.564,1221L906.668,1237.65C906.668,1237.65 898.092,1241.22 891.132,1240.6C883.17,1239.89 865.484,1231.55 862.528,1216.53C860.657,1207.03 856.904,1194.59 859.546,1184.21C863.405,1169.06 879.67,1164.74 879.67,1164.74Z" style="fill:url(#_Linear3);"/>
                </g>
            </g>
            <g transform="matrix(-0.847492,-0.612387,-0.697124,0.964761,2489.65,737.077)">
                <path d="M1207.47,1083.51C1207.47,1067.8 1199.2,1052.98 1185.06,1043.37C1170.92,1033.76 1152.51,1030.43 1135.2,1034.37C1056.78,1052.21 942.597,1078.18 942.597,1078.18L928.522,1128.37C928.522,1128.37 1065.86,1132.32 1147.8,1134.67C1163.44,1135.12 1178.63,1129.98 1189.87,1120.41C1201.12,1110.85 1207.47,1097.69 1207.47,1083.94C1207.47,1083.8 1207.47,1083.65 1207.47,1083.51Z" style="fill:url(#_Linear4);"/>
            </g>
            <g transform="matrix(0.773123,-8.59703e-17,9.16562e-17,-1.57268,196.815,2873.46)">
                <path d="M1228.59,1158.54L815.5,1158.54L815.5,1147.75L845.147,1092.32L1198.94,1092.32L1228.59,1147.75L1228.59,1158.54Z" style="fill:rgb(219,185,218);"/>
            </g>
            <g transform="matrix(0.773123,-8.59703e-17,9.16562e-17,-1.57268,196.815,2873.46)">
                <path d="M1228.59,1158.54L815.5,1158.54L854.498,1092.32L1189.59,1092.32L1228.59,1158.54Z" style="fill:rgb(173,172,172);"/>
            </g>
            <g transform="matrix(0.757905,0,0,0.757905,253.561,211.558)">
                <circle cx="1060.93" cy="887.437" r="13.573" style="fill:rgb(173,172,172);"/>
            </g>
            <g transform="matrix(-1,0,0,-1,1994.54,1842.51)">
                <path d="M1067.93,941.502L947.176,941.502L964.298,894.438L1050.81,894.438L1067.93,941.502Z" style="fill:rgb(85,91,103);"/>
            </g>
            <g transform="matrix(0.757905,0,0,0.757905,108.424,211.558)">
                <circle cx="1060.93" cy="887.437" r="13.573" style="fill:rgb(173,172,172);"/>
            </g>
            <g transform="matrix(1,0,0,1,-7.60599,-36.0719)">
                <path d="M992.794,708.44C992.794,708.44 961.588,787.273 961.588,821.058C961.588,838.281 975.571,852.264 992.794,852.264C1010.02,852.264 1024,838.281 1024,821.058C1024,787.273 992.794,708.44 992.794,708.44Z" style="fill:rgb(249,181,141);"/>
            </g>
        </g>
    </g>
    <defs>
        <linearGradient id="_Linear1" x1="0" y1="0" x2="1" y2="0" gradientUnits="userSpaceOnUse" gradientTransform="matrix(1.2941e-13,-140.288,177.916,1.02041e-13,982.9,901.985)"><stop offset="0" style="stop-color:rgb(104,154,240);stop-opacity:1"/><stop offset="0.51" style="stop-color:rgb(79,139,229);stop-opacity:1"/><stop offset="1" style="stop-color:rgb(0,92,194);stop-opacity:1"/></linearGradient>
        <linearGradient id="_Linear2" x1="0" y1="0" x2="1" y2="0" gradientUnits="userSpaceOnUse" gradientTransform="matrix(-17.8241,-2.23817e-13,2.23817e-13,-17.8241,924.991,1253.47)"><stop offset="0" style="stop-color:rgb(105,186,201);stop-opacity:1"/><stop offset="1" style="stop-color:rgb(89,170,185);stop-opacity:1"/></linearGradient>
        <linearGradient id="_Linear3" x1="0" y1="0" x2="1" y2="0" gradientUnits="userSpaceOnUse" gradientTransform="matrix(3.44119,14.1409,14.1409,-3.44119,942.483,1218.84)"><stop offset="0" style="stop-color:rgb(105,186,201);stop-opacity:1"/><stop offset="1" style="stop-color:rgb(100,176,206);stop-opacity:1"/></linearGradient>
        <linearGradient id="_Linear4" x1="0" y1="0" x2="1" y2="0" gradientUnits="userSpaceOnUse" gradientTransform="matrix(14.1642,-111.175,-126.558,-12.4425,1089.87,1125.59)"><stop offset="0" style="stop-color:rgb(87,100,124);stop-opacity:1"/><stop offset="0.49" style="stop-color:rgb(73,88,114);stop-opacity:1"/><stop offset="1" style="stop-color:rgb(34,52,84);stop-opacity:1"/></linearGradient>
    </defs>
</svg>
