<?xml version="1.0" encoding="UTF-8" standalone="no"?>
<!DOCTYPE svg PUBLIC "-//W3C//DTD SVG 1.1//EN" "http://www.w3.org/Graphics/SVG/1.1/DTD/svg11.dtd">
<svg width="100%" height="100%" viewBox="0 0 107 308" version="1.1" xmlns="http://www.w3.org/2000/svg" xmlns:xlink="http://www.w3.org/1999/xlink" xml:space="preserve" xmlns:serif="http://www.serif.com/" style="fill-rule:evenodd;clip-rule:evenodd;stroke-linejoin:round;stroke-miterlimit:2;">
    <g transform="matrix(1,0,0,1,-816.701,-768)">
        <g>
            <path d="M922.798,768C922.798,768 858.955,812.082 858.472,812.861C857.988,813.641 836.925,864.312 834.872,873.44C832.558,883.729 830.805,888.972 824.919,901.01C815.5,920.277 823.567,957.649 817.416,974.629C811.927,989.782 839.821,1051.44 839.821,1051.44L914.846,1051.44L903.516,965.86C903.516,965.86 901.051,954.918 892.932,936.523C891.882,934.145 886.284,929.047 886.592,923.957C886.753,921.304 887.619,917.619 886.992,915.316C885.106,908.396 883.8,902.951 883.758,901.01C882.934,862.862 922.798,768 922.798,768Z" style="fill:url(#_Linear1);"/>
            <path d="M908.712,1055.1C909.944,1060.05 908.824,1065.29 905.676,1069.31C902.529,1073.33 897.706,1075.66 892.605,1075.65C879.16,1075.62 861.844,1075.58 848.42,1075.54C843.333,1075.53 838.534,1073.18 835.406,1069.17C832.277,1065.15 831.167,1059.93 832.395,1054.99C833.467,1050.68 834.567,1046.26 835.541,1042.34C837.381,1034.94 844.038,1029.76 851.663,1029.78C862.722,1029.82 878.527,1029.87 889.561,1029.91C897.144,1029.94 903.741,1035.11 905.571,1042.47C906.543,1046.38 907.641,1050.79 908.712,1055.1Z" style="fill:rgb(249,181,141);"/>
        </g>
    </g>
    <defs>
        <linearGradient id="_Linear1" x1="0" y1="0" x2="1" y2="0" gradientUnits="userSpaceOnUse" gradientTransform="matrix(1.02329e-14,-167.116,167.116,1.02329e-14,1024,951.717)"><stop offset="0" style="stop-color:rgb(140,105,201);stop-opacity:1"/><stop offset="0.5" style="stop-color:rgb(72,85,146);stop-opacity:1"/><stop offset="1" style="stop-color:rgb(49,78,127);stop-opacity:1"/></linearGradient>
    </defs>
</svg>
