<svg clip-rule="evenodd" fill-rule="evenodd" stroke-linejoin="round" stroke-miterlimit="2" viewBox="0 0 817 830" xmlns="http://www.w3.org/2000/svg" xmlns:xlink="http://www.w3.org/1999/xlink"><linearGradient id="a" gradientTransform="matrix(563.754 327.782 -327.782 563.754 816.155 570.825)" gradientUnits="userSpaceOnUse" x1="0" x2="1" y1="0" y2="0"><stop offset="0" stop-color="#5c39f3"/><stop offset="1" stop-color="#f891c7"/></linearGradient><linearGradient id="b" gradientTransform="matrix(328.724 -70.4852 70.4852 328.724 934.071 609.311)" gradientUnits="userSpaceOnUse" x1="0" x2="1" y1="0" y2="0"><stop offset="0" stop-color="#00d4ff"/><stop offset="1" stop-color="#7577e6"/></linearGradient><linearGradient id="c" gradientTransform="matrix(-181.695 -299.171 299.171 -181.695 1413.61 822.068)" gradientUnits="userSpaceOnUse" x1="0" x2="1" y1="0" y2="0"><stop offset="0" stop-color="#84a1de"/><stop offset="1" stop-color="#5c39f3"/></linearGradient><g transform="translate(-733.165 -305.8704)"><path d="m816.707 500.34c-55.898 55.897-87.301 131.711-87.301 210.762 0 164.505 133.558 298.058 298.064 298.058 164.5 0 298.06-133.553 298.06-298.058 0-101.213-51.36-195.51-136.39-250.408l-27.38 42.41c70.63 45.601 113.29 123.927 113.29 207.998 0 136.643-110.94 247.58-247.58 247.58-136.645 0-247.582-110.937-247.582-247.58 0-65.663 26.084-128.636 72.515-175.066z" fill="url(#a)" transform="matrix(0 1 -1 0 1742.33 -312.561)"/><path d="m914.207 609.311c-36.009 36.009-56.238 84.848-56.238 135.772 0 105.973 86.037 192.01 192.011 192.01 105.97 0 192.01-86.037 192.01-192.01 0-50.924-20.23-99.763-56.24-135.772l-33.94 33.943c27 27.007 42.18 63.636 42.18 101.829 0 79.48-64.53 144.008-144.01 144.008-79.481 0-144.009-64.528-144.009-144.008 0-38.193 15.172-74.822 42.179-101.829z" fill="url(#b)" transform="matrix(0 1 -1 0 1780.82 -335.071)"/><path d="m671.062 283.012 15.407 47.752h-30.814z" fill="#644cef" transform="matrix(-1.75686 -1.69952 -5.23344 5.41001 4209.61 -84.7418)"/><path d="m1241.14 503.329s67.77 62.133 105.04 96.314c15.6 14.298 26.68 32.834 31.91 53.337 2.05 8.081 4.22 16.596 6.12 24.057 3.6 14.135 11.14 26.96 21.73 36.988 27.88 26.391 85.08 80.545 118.25 111.948 15.91 15.064 23.65 36.837 20.81 58.564-.27 2.072-.55 4.217-.84 6.43-5.09 38.964-33.63 70.78-71.81 80.055-38.19 9.275-78.15-5.903-100.54-38.19-.66-.949-1.29-1.861-1.9-2.736-5.96-8.593-13.94-15.59-23.24-20.377-14.04-7.229-34.96-17.998-45.66-23.504-4.4-2.266-9.48-2.836-14.28-1.601-54.92 14.144-113.29 3.358-159.53-29.482-9.5-6.746-19.17-13.618-28.52-20.254-38.97-27.674-57.65-75.936-47.48-122.637 4.44-20.421 8.03-36.898 8.03-36.898s4.7 25.464 9.3 50.361c5.58 30.227 22.61 57.134 47.55 75.109 4.35 3.14 8.88 6.406 13.49 9.723 44.83 32.319 101.44 43.695 155.28 31.203 3.93-.912 8.06-.457 11.7 1.291 16.31 7.83 63.6 30.542 81.85 39.306 4.8 2.303 8.95 5.755 12.09 10.048 3.15 4.309 7.68 10.5 13.04 17.829 13.31 18.19 36.01 26.93 58.08 22.357s39.43-21.617 44.41-43.595c0-.001 0-.002 0-.002 3.75-16.547-1.84-33.82-14.56-45.041-32.74-28.871-96.09-84.732-127.59-112.509-12.18-10.736-20.66-25.038-24.23-40.871-.52-2.307-1.06-4.673-1.59-7.05-5.04-22.312-16.99-42.468-34.14-57.602-36.49-32.201-97.91-86.409-97.91-86.409z" fill="url(#c)"/><circle cx="1268.31" cy="688.59" fill="#6f69e9" r="26.318"/></g></svg>