<svg width="26" height="26" viewBox="0 0 26 26" fill="none" xmlns="http://www.w3.org/2000/svg">
<path d="M13 0.5C10.5277 0.5 8.11099 1.23311 6.05538 2.60663C3.99976 3.98015 2.39761 5.93238 1.45151 8.21646C0.505416 10.5005 0.257874 13.0139 0.74019 15.4386C1.2225 17.8634 2.41301 20.0907 4.16117 21.8388C5.90933 23.587 8.13661 24.7775 10.5614 25.2598C12.9861 25.7421 15.4995 25.4946 17.7835 24.5485C20.0676 23.6024 22.0199 22.0002 23.3934 19.9446C24.7669 17.889 25.5 15.4723 25.5 13C25.5 11.3585 25.1767 9.73303 24.5485 8.21646C23.9203 6.69989 22.9996 5.3219 21.8388 4.16117C20.6781 3.00043 19.3001 2.07969 17.7835 1.45151C16.267 0.823322 14.6415 0.5 13 0.5V0.5ZM13 23C11.0222 23 9.08879 22.4135 7.4443 21.3147C5.79981 20.2159 4.51809 18.6541 3.76121 16.8268C3.00433 14.9996 2.8063 12.9889 3.19215 11.0491C3.57801 9.10929 4.53041 7.32746 5.92894 5.92893C7.32746 4.53041 9.10929 3.578 11.0491 3.19215C12.9889 2.8063 14.9996 3.00433 16.8268 3.7612C18.6541 4.51808 20.2159 5.79981 21.3147 7.4443C22.4135 9.08879 23 11.0222 23 13C23 15.6522 21.9464 18.1957 20.0711 20.0711C18.1957 21.9464 15.6522 23 13 23V23Z" fill="#F85CCF"/>
<path d="M16.3874 9.61248C16.2712 9.49532 16.133 9.40233 15.9806 9.33887C15.8283 9.27541 15.6649 9.24274 15.4999 9.24274C15.3349 9.24274 15.1715 9.27541 15.0192 9.33887C14.8669 9.40233 14.7286 9.49532 14.6124 9.61248L12.9999 11.2375L11.3874 9.61248C11.152 9.37711 10.8328 9.24487 10.4999 9.24487C10.167 9.24487 9.8478 9.37711 9.61242 9.61248C9.37704 9.84786 9.24481 10.1671 9.24481 10.5C9.24481 10.8329 9.37704 11.1521 9.61242 11.3875L11.2374 13L9.61242 14.6125C9.49526 14.7287 9.40227 14.8669 9.33881 15.0193C9.27535 15.1716 9.24268 15.335 9.24268 15.5C9.24268 15.665 9.27535 15.8284 9.33881 15.9807C9.40227 16.133 9.49526 16.2713 9.61242 16.3875C9.72863 16.5046 9.86688 16.5976 10.0192 16.6611C10.1715 16.7246 10.3349 16.7572 10.4999 16.7572C10.6649 16.7572 10.8283 16.7246 10.9806 16.6611C11.133 16.5976 11.2712 16.5046 11.3874 16.3875L12.9999 14.7625L14.6124 16.3875C14.7286 16.5046 14.8669 16.5976 15.0192 16.6611C15.1715 16.7246 15.3349 16.7572 15.4999 16.7572C15.6649 16.7572 15.8283 16.7246 15.9806 16.6611C16.133 16.5976 16.2712 16.5046 16.3874 16.3875C16.5046 16.2713 16.5976 16.133 16.661 15.9807C16.7245 15.8284 16.7572 15.665 16.7572 15.5C16.7572 15.335 16.7245 15.1716 16.661 15.0193C16.5976 14.8669 16.5046 14.7287 16.3874 14.6125L14.7624 13L16.3874 11.3875C16.5046 11.2713 16.5976 11.133 16.661 10.9807C16.7245 10.8284 16.7572 10.665 16.7572 10.5C16.7572 10.335 16.7245 10.1716 16.661 10.0193C16.5976 9.86694 16.5046 9.72869 16.3874 9.61248V9.61248Z" fill="#F85CCF"/>
</svg>
