<svg width="54" height="80" viewBox="0 0 54 80" fill="none" xmlns="http://www.w3.org/2000/svg">
<g clip-path="url(#clip0)">
<path d="M13.3333 79.9999C20.6933 79.9999 26.6667 74.0266 26.6667 66.6666V53.3333H13.3333C5.97333 53.3333 0 59.3066 0 66.6666C0 74.0266 5.97333 79.9999 13.3333 79.9999Z" fill="#0ACF83"/>
<path d="M0 40.0001C0 32.6401 5.97333 26.6667 13.3333 26.6667H26.6667V53.3334H13.3333C5.97333 53.3334 0 47.3601 0 40.0001Z" fill="#A259FF"/>
<path d="M0 13.3333C0 5.97333 5.97333 0 13.3333 0H26.6667V26.6667H13.3333C5.97333 26.6667 0 20.6933 0 13.3333Z" fill="#F24E1E"/>
<path d="M26.6665 0H39.9998C47.3598 0 53.3332 5.97333 53.3332 13.3333C53.3332 20.6933 47.3598 26.6667 39.9998 26.6667H26.6665V0Z" fill="#FF7262"/>
<path d="M53.3332 40.0001C53.3332 47.3601 47.3598 53.3334 39.9998 53.3334C32.6398 53.3334 26.6665 47.3601 26.6665 40.0001C26.6665 32.6401 32.6398 26.6667 39.9998 26.6667C47.3598 26.6667 53.3332 32.6401 53.3332 40.0001Z" fill="#1ABCFE"/>
</g>
<defs>
<clipPath id="clip0">
<rect width="53.3333" height="80" fill="white"/>
</clipPath>
</defs>
</svg>
