<svg width="370" height="500" viewBox="0 0 370 500" fill="none" xmlns="http://www.w3.org/2000/svg">
<path fill-rule="evenodd" clip-rule="evenodd" d="M25.8852 95.4049V271.029C25.8852 274.638 27.8301 277.967 30.974 279.74L180.154 363.845C183.213 365.57 186.953 365.564 190.007 363.828L338.469 279.432C340.474 278.292 340.496 275.41 338.509 274.24L190.009 186.741C186.958 184.944 185.085 181.667 185.085 178.126V6.79054C185.085 4.50727 182.636 3.06093 180.637 4.16349L31.0563 86.6481C27.8662 88.4072 25.8852 91.7619 25.8852 95.4049ZM201.17 257.083C196.446 254.222 194.936 248.074 197.796 243.349L199.231 240.981C202.092 236.257 208.241 234.746 212.965 237.607L259.155 265.579C263.879 268.44 265.39 274.589 262.529 279.313L261.095 281.681C258.234 286.406 252.085 287.916 247.361 285.055L201.17 257.083ZM140.526 75.4027C135.003 75.4027 130.526 79.8798 130.526 85.4027V139.403C130.526 144.926 135.003 149.403 140.526 149.403H143.295C148.818 149.403 153.295 144.926 153.295 139.403V85.4027C153.295 79.8798 148.818 75.4027 143.295 75.4027H140.526Z" fill="#028FD6"/>
<mask id="mask0" mask-type="alpha" maskUnits="userSpaceOnUse" x="207" y="23" width="128" height="223">
<path d="M330.005 94.8563L211.986 24.1257C209.986 22.9273 207.444 24.3677 207.444 26.6989V165.423C207.444 168.932 209.284 172.185 212.292 173.993L330.319 244.94C332.319 246.142 334.865 244.702 334.865 242.369V103.434C334.865 99.9194 333.02 96.663 330.005 94.8563Z" fill="#596275"/>
</mask>
<g mask="url(#mask0)">
<path fill-rule="evenodd" clip-rule="evenodd" d="M330.005 94.8563L211.986 24.1257C209.987 22.9273 207.444 24.3677 207.444 26.6989V53.4522L253.053 81.0722C257.777 83.933 259.288 90.0819 256.427 94.806L254.992 97.1748C252.132 101.899 245.983 103.409 241.259 100.549L207.444 80.0711V165.423C207.444 168.932 209.284 172.185 212.292 173.993L282.276 216.061V183.672C282.276 178.15 286.753 173.672 292.276 173.672H295.045C300.568 173.672 305.045 178.15 305.045 183.672V229.748L330.319 244.94C332.319 246.142 334.865 244.702 334.865 242.369V103.434C334.865 99.9194 333.02 96.663 330.005 94.8563Z" fill="#1374A8"/>
<path fill-rule="evenodd" clip-rule="evenodd" d="M334.865 97.7686V247.672L305.045 229.748V183.672C305.045 178.15 300.568 173.672 295.045 173.672H292.276C286.753 173.672 282.276 178.15 282.276 183.672V216.061L207.444 171.079L334.865 97.7686Z" fill="#10608B"/>
</g>
<path d="M67.904 472.48C66.688 472.48 65.664 472.064 64.832 471.232C64 470.4 63.584 469.376 63.584 468.16V405.856C63.584 404.64 64 403.616 64.832 402.784C65.664 401.888 66.688 401.44 67.904 401.44C69.12 401.44 70.144 401.888 70.976 402.784C71.872 403.616 72.32 404.64 72.32 405.856V445.12L95.168 424C96.128 423.168 97.088 422.752 98.048 422.752C99.52 422.752 100.576 423.168 101.216 424C101.92 424.832 102.272 425.824 102.272 426.976C102.272 428.064 101.728 429.152 100.64 430.24L86.816 442.624L104.192 465.664C104.832 466.496 105.152 467.36 105.152 468.256C105.152 469.536 104.736 470.56 103.904 471.328C103.072 472.096 102.016 472.48 100.736 472.48C100.096 472.48 99.456 472.32 98.816 472C98.176 471.68 97.632 471.232 97.184 470.656L80.672 448.192L72.32 455.776V468.16C72.32 469.376 71.872 470.4 70.976 471.232C70.144 472.064 69.12 472.48 67.904 472.48ZM120.217 472.48C119.001 472.48 117.977 472.064 117.145 471.232C116.313 470.4 115.897 469.376 115.897 468.16V426.976C115.897 425.76 116.313 424.736 117.145 423.904C117.977 423.008 119.001 422.56 120.217 422.56C121.433 422.56 122.457 423.008 123.289 423.904C124.185 424.736 124.633 425.76 124.633 426.976V431.104C129.113 425.088 134.137 422.08 139.705 422.08H140.185C141.401 422.08 142.393 422.496 143.161 423.328C143.993 424.16 144.409 425.184 144.409 426.4C144.409 427.616 143.993 428.608 143.161 429.376C142.329 430.144 141.273 430.528 139.993 430.528H139.513C136.441 430.528 133.625 431.296 131.065 432.832C128.505 434.304 126.361 436.352 124.633 438.976V468.16C124.633 469.376 124.185 470.4 123.289 471.232C122.457 472.064 121.433 472.48 120.217 472.48ZM165.127 472.96C162.311 472.96 159.687 472.384 157.255 471.232C154.887 470.08 152.999 468.416 151.591 466.24C150.183 464 149.479 461.44 149.479 458.56C149.479 453.824 151.335 450.048 155.047 447.232C158.823 444.416 164.327 443.008 171.559 443.008H183.175V442.24C183.175 438.016 182.119 434.976 180.007 433.12C177.959 431.264 174.727 430.336 170.311 430.336C167.879 430.336 165.703 430.528 163.783 430.912C161.927 431.296 159.847 431.872 157.543 432.64C157.031 432.768 156.615 432.832 156.295 432.832C155.335 432.832 154.503 432.48 153.799 431.776C153.095 431.072 152.743 430.208 152.743 429.184C152.743 427.456 153.575 426.24 155.239 425.536C160.679 423.232 166.215 422.08 171.847 422.08C176.263 422.08 179.975 422.976 182.983 424.768C186.055 426.56 188.295 428.896 189.703 431.776C191.175 434.592 191.911 437.664 191.911 440.992V468.16C191.911 469.376 191.463 470.4 190.567 471.232C189.735 472.064 188.711 472.48 187.495 472.48C186.279 472.48 185.255 472.064 184.423 471.232C183.591 470.4 183.175 469.376 183.175 468.16V465.664C178.439 470.528 172.423 472.96 165.127 472.96ZM168.391 465.28C171.207 465.28 173.927 464.608 176.551 463.264C179.175 461.856 181.383 460.128 183.175 458.08V450.016H172.711C163.047 450.016 158.215 452.544 158.215 457.6C158.215 459.904 158.983 461.76 160.519 463.168C162.119 464.576 164.743 465.28 168.391 465.28ZM210.681 413.056C209.337 413.056 208.185 412.576 207.225 411.616C206.265 410.656 205.785 409.504 205.785 408.16V407.776C205.785 406.432 206.265 405.28 207.225 404.32C208.185 403.36 209.337 402.88 210.681 402.88H211.257C212.601 402.88 213.753 403.36 214.713 404.32C215.673 405.28 216.153 406.432 216.153 407.776V408.16C216.153 409.504 215.673 410.656 214.713 411.616C213.753 412.576 212.601 413.056 211.257 413.056H210.681ZM210.873 472.48C209.657 472.48 208.633 472.064 207.801 471.232C206.969 470.4 206.553 469.376 206.553 468.16V426.976C206.553 425.76 206.969 424.736 207.801 423.904C208.633 423.008 209.657 422.56 210.873 422.56C212.153 422.56 213.209 422.976 214.041 423.808C214.873 424.64 215.289 425.696 215.289 426.976V468.16C215.289 469.376 214.841 470.4 213.945 471.232C213.113 472.064 212.089 472.48 210.873 472.48ZM247.355 472.96C238.011 472.96 233.339 468.736 233.339 460.288V430.528H226.523C226.011 430.528 225.563 430.368 225.179 430.048C224.859 429.664 224.699 429.216 224.699 428.704C224.699 428.064 224.987 427.52 225.563 427.072L238.619 414.304C239.195 413.728 239.739 413.44 240.251 413.44C240.763 413.44 241.179 413.632 241.499 414.016C241.883 414.4 242.075 414.848 242.075 415.36V423.04H252.923C254.011 423.04 254.907 423.392 255.611 424.096C256.315 424.8 256.667 425.696 256.667 426.784C256.667 427.808 256.315 428.704 255.611 429.472C254.907 430.176 254.011 430.528 252.923 430.528H242.075V459.52C242.075 462.016 242.651 463.616 243.803 464.32C245.019 464.96 246.523 465.28 248.315 465.28C249.595 465.28 250.875 465.088 252.155 464.704C252.411 464.64 252.667 464.576 252.923 464.512C253.243 464.448 253.627 464.416 254.075 464.416C254.971 464.416 255.771 464.768 256.475 465.472C257.179 466.112 257.531 466.912 257.531 467.872C257.531 469.344 256.795 470.464 255.323 471.232C252.827 472.384 250.171 472.96 247.355 472.96ZM288.347 472.96C280.539 472.96 274.427 470.752 270.011 466.336C265.659 461.856 263.483 455.584 263.483 447.52C263.483 442.976 264.315 438.784 265.979 434.944C267.643 431.104 270.203 428 273.659 425.632C277.115 423.264 281.371 422.08 286.427 422.08C291.163 422.08 295.259 423.2 298.715 425.44C302.171 427.616 304.795 430.56 306.587 434.272C308.379 437.92 309.275 441.92 309.275 446.272C309.275 447.488 308.859 448.512 308.027 449.344C307.259 450.176 306.203 450.592 304.859 450.592H272.315C272.827 455.072 274.491 458.56 277.307 461.056C280.123 463.552 284.059 464.8 289.115 464.8C291.803 464.8 294.139 464.544 296.123 464.032C298.171 463.52 300.155 462.784 302.075 461.824C302.587 461.568 303.163 461.44 303.803 461.44C304.827 461.44 305.723 461.792 306.491 462.496C307.259 463.2 307.643 464.096 307.643 465.184C307.643 466.592 306.811 467.776 305.147 468.736C302.651 470.144 300.187 471.2 297.755 471.904C295.323 472.608 292.187 472.96 288.347 472.96ZM300.635 443.488C300.443 440.352 299.611 437.728 298.139 435.616C296.731 433.504 294.971 431.968 292.859 431.008C290.747 429.984 288.603 429.472 286.427 429.472C284.251 429.472 282.107 429.984 279.995 431.008C277.883 431.968 276.123 433.504 274.715 435.616C273.307 437.728 272.507 440.352 272.315 443.488H300.635Z" fill="#505870"/>
<path d="M64.832 471.232L65.1856 470.878L65.1856 470.878L64.832 471.232ZM64.832 402.784L65.1856 403.138L65.1921 403.131L65.1984 403.124L64.832 402.784ZM70.976 402.784L70.6096 403.124L70.6222 403.138L70.6358 403.15L70.976 402.784ZM72.32 445.12H71.82V446.263L72.6594 445.487L72.32 445.12ZM95.168 424L94.8405 423.622L94.8345 423.627L94.8286 423.633L95.168 424ZM101.216 424L100.82 424.305L100.827 424.314L100.834 424.323L101.216 424ZM100.64 430.24L100.974 430.612L100.984 430.603L100.994 430.594L100.64 430.24ZM86.816 442.624L86.4824 442.252L86.1401 442.558L86.4168 442.925L86.816 442.624ZM104.192 465.664L103.793 465.965L103.796 465.969L104.192 465.664ZM103.904 471.328L103.565 470.961L103.565 470.961L103.904 471.328ZM98.816 472L98.5924 472.447L98.5924 472.447L98.816 472ZM97.184 470.656L96.781 470.952L96.7893 470.963L97.184 470.656ZM80.672 448.192L81.0749 447.896L80.7464 447.449L80.3359 447.822L80.672 448.192ZM72.32 455.776L71.9839 455.406L71.82 455.555V455.776H72.32ZM70.976 471.232L70.6358 470.866L70.629 470.872L70.6224 470.878L70.976 471.232ZM67.904 471.98C66.8156 471.98 65.9203 471.613 65.1856 470.878L64.4784 471.586C65.4077 472.515 66.5604 472.98 67.904 472.98V471.98ZM65.1856 470.878C64.4508 470.144 64.084 469.248 64.084 468.16H63.084C63.084 469.504 63.5492 470.656 64.4784 471.586L65.1856 470.878ZM64.084 468.16V405.856H63.084V468.16H64.084ZM64.084 405.856C64.084 404.768 64.4508 403.872 65.1856 403.138L64.4784 402.43C63.5492 403.36 63.084 404.512 63.084 405.856H64.084ZM65.1984 403.124C65.9364 402.329 66.8279 401.94 67.904 401.94V400.94C66.5481 400.94 65.3916 401.447 64.4656 402.444L65.1984 403.124ZM67.904 401.94C68.9801 401.94 69.8716 402.329 70.6096 403.124L71.3424 402.444C70.4164 401.447 69.2599 400.94 67.904 400.94V401.94ZM70.6358 403.15C71.4305 403.888 71.82 404.78 71.82 405.856H72.82C72.82 404.5 72.3135 403.344 71.3162 402.418L70.6358 403.15ZM71.82 405.856V445.12H72.82V405.856H71.82ZM72.6594 445.487L95.5074 424.367L94.8286 423.633L71.9806 444.753L72.6594 445.487ZM95.4955 424.378C96.3944 423.599 97.2426 423.252 98.048 423.252V422.252C96.9334 422.252 95.8616 422.737 94.8405 423.622L95.4955 424.378ZM98.048 423.252C99.4309 423.252 100.308 423.64 100.82 424.305L101.612 423.695C100.844 422.696 99.6091 422.252 98.048 422.252V423.252ZM100.834 424.323C101.457 425.059 101.772 425.935 101.772 426.976H102.772C102.772 425.713 102.383 424.605 101.598 423.677L100.834 424.323ZM101.772 426.976C101.772 427.885 101.32 428.853 100.286 429.886L100.994 430.594C102.136 429.451 102.772 428.243 102.772 426.976H101.772ZM100.306 429.868L86.4824 442.252L87.1496 442.996L100.974 430.612L100.306 429.868ZM86.4168 442.925L103.793 465.965L104.591 465.363L87.2152 442.323L86.4168 442.925ZM103.796 465.969C104.38 466.729 104.652 467.488 104.652 468.256H105.652C105.652 467.232 105.284 466.263 104.588 465.359L103.796 465.969ZM104.652 468.256C104.652 469.417 104.28 470.3 103.565 470.961L104.243 471.695C105.192 470.82 105.652 469.655 105.652 468.256H104.652ZM103.565 470.961C102.837 471.632 101.908 471.98 100.736 471.98V472.98C102.124 472.98 103.307 472.56 104.243 471.695L103.565 470.961ZM100.736 471.98C100.182 471.98 99.6185 471.842 99.0396 471.553L98.5924 472.447C99.2935 472.798 100.01 472.98 100.736 472.98V471.98ZM99.0396 471.553C98.4677 471.267 97.9818 470.867 97.5787 470.349L96.7893 470.963C97.2822 471.597 97.8843 472.093 98.5924 472.447L99.0396 471.553ZM97.5869 470.36L81.0749 447.896L80.2691 448.488L96.7811 470.952L97.5869 470.36ZM80.3359 447.822L71.9839 455.406L72.6561 456.146L81.0081 448.562L80.3359 447.822ZM71.82 455.776V468.16H72.82V455.776H71.82ZM71.82 468.16C71.82 469.236 71.4305 470.128 70.6358 470.866L71.3162 471.598C72.3135 470.672 72.82 469.516 72.82 468.16H71.82ZM70.6224 470.878C69.8877 471.613 68.9924 471.98 67.904 471.98V472.98C69.2476 472.98 70.4003 472.515 71.3296 471.586L70.6224 470.878ZM117.145 471.232L117.498 470.878L117.498 470.878L117.145 471.232ZM117.145 423.904L117.498 424.258L117.505 424.251L117.511 424.244L117.145 423.904ZM123.289 423.904L122.922 424.244L122.935 424.258L122.948 424.27L123.289 423.904ZM124.633 431.104H124.133V432.613L125.034 431.403L124.633 431.104ZM143.161 423.328L142.793 423.667L142.8 423.674L142.807 423.682L143.161 423.328ZM143.161 429.376L142.821 429.009L142.821 429.009L143.161 429.376ZM131.065 432.832L131.314 433.266L131.322 433.261L131.065 432.832ZM124.633 438.976L124.215 438.701L124.133 438.826V438.976H124.633ZM123.289 471.232L122.948 470.866L122.941 470.872L122.935 470.878L123.289 471.232ZM120.217 471.98C119.128 471.98 118.233 471.613 117.498 470.878L116.791 471.586C117.72 472.515 118.873 472.98 120.217 472.98V471.98ZM117.498 470.878C116.763 470.144 116.397 469.248 116.397 468.16H115.397C115.397 469.504 115.862 470.656 116.791 471.586L117.498 470.878ZM116.397 468.16V426.976H115.397V468.16H116.397ZM116.397 426.976C116.397 425.888 116.763 424.992 117.498 424.258L116.791 423.55C115.862 424.48 115.397 425.632 115.397 426.976H116.397ZM117.511 424.244C118.249 423.449 119.14 423.06 120.217 423.06V422.06C118.861 422.06 117.704 422.567 116.778 423.564L117.511 424.244ZM120.217 423.06C121.293 423.06 122.184 423.449 122.922 424.244L123.655 423.564C122.729 422.567 121.572 422.06 120.217 422.06V423.06ZM122.948 424.27C123.743 425.008 124.133 425.9 124.133 426.976H125.133C125.133 425.62 124.626 424.464 123.629 423.538L122.948 424.27ZM124.133 426.976V431.104H125.133V426.976H124.133ZM125.034 431.403C129.455 425.466 134.346 422.58 139.705 422.58V421.58C133.927 421.58 128.77 424.71 124.231 430.805L125.034 431.403ZM139.705 422.58H140.185V421.58H139.705V422.58ZM140.185 422.58C141.273 422.58 142.127 422.946 142.793 423.667L143.528 422.989C142.658 422.046 141.528 421.58 140.185 421.58V422.58ZM142.807 423.682C143.542 424.416 143.909 425.312 143.909 426.4H144.909C144.909 425.056 144.443 423.904 143.514 422.974L142.807 423.682ZM143.909 426.4C143.909 427.488 143.543 428.343 142.821 429.009L143.5 429.743C144.442 428.873 144.909 427.744 144.909 426.4H143.909ZM142.821 429.009C142.094 429.68 141.164 430.028 139.993 430.028V431.028C141.381 431.028 142.563 430.608 143.5 429.743L142.821 429.009ZM139.993 430.028H139.513V431.028H139.993V430.028ZM139.513 430.028C136.353 430.028 133.447 430.819 130.807 432.403L131.322 433.261C133.802 431.773 136.528 431.028 139.513 431.028V430.028ZM130.815 432.399C128.183 433.912 125.983 436.016 124.215 438.701L125.05 439.251C126.738 436.688 128.826 434.696 131.314 433.265L130.815 432.399ZM124.133 438.976V468.16H125.133V438.976H124.133ZM124.133 468.16C124.133 469.236 123.743 470.128 122.948 470.866L123.629 471.598C124.626 470.672 125.133 469.516 125.133 468.16H124.133ZM122.935 470.878C122.2 471.613 121.305 471.98 120.217 471.98V472.98C121.56 472.98 122.713 472.515 123.642 471.586L122.935 470.878ZM157.255 471.232L157.036 471.682L157.04 471.684L157.255 471.232ZM151.591 466.24L151.167 466.506L151.171 466.512L151.591 466.24ZM155.047 447.232L154.748 446.831L154.744 446.834L155.047 447.232ZM183.175 443.008V443.508H183.675V443.008H183.175ZM180.007 433.12L179.671 433.491L179.676 433.496L180.007 433.12ZM163.783 430.912L163.684 430.422L163.681 430.422L163.783 430.912ZM157.543 432.64L157.664 433.125L157.682 433.12L157.701 433.114L157.543 432.64ZM153.799 431.776L154.152 431.422L154.152 431.422L153.799 431.776ZM155.239 425.536L155.433 425.996L155.433 425.996L155.239 425.536ZM182.983 424.768L182.727 425.198L182.731 425.2L182.983 424.768ZM189.703 431.776L189.253 431.996L189.259 432.008L189.703 431.776ZM190.567 471.232L190.226 470.866L190.219 470.872L190.213 470.878L190.567 471.232ZM184.423 471.232L184.776 470.878L184.776 470.878L184.423 471.232ZM183.175 465.664H183.675V464.434L182.816 465.315L183.175 465.664ZM176.551 463.264L176.778 463.709L176.787 463.705L176.551 463.264ZM183.175 458.08L183.551 458.409L183.675 458.268V458.08H183.175ZM183.175 450.016H183.675V449.516H183.175V450.016ZM160.519 463.168L160.181 463.537L160.188 463.543L160.519 463.168ZM165.127 472.46C162.381 472.46 159.831 471.899 157.469 470.78L157.04 471.684C159.542 472.869 162.24 473.46 165.127 473.46V472.46ZM157.473 470.782C155.186 469.67 153.368 468.067 152.01 465.968L151.171 466.512C152.629 468.765 154.587 470.49 157.036 471.682L157.473 470.782ZM152.014 465.974C150.66 463.821 149.979 461.355 149.979 458.56H148.979C148.979 461.525 149.705 464.179 151.167 466.506L152.014 465.974ZM149.979 458.56C149.979 453.977 151.764 450.35 155.349 447.63L154.744 446.834C150.905 449.746 148.979 453.671 148.979 458.56H149.979ZM155.345 447.633C159 444.907 164.38 443.508 171.559 443.508V442.508C164.273 442.508 158.645 443.925 154.748 446.831L155.345 447.633ZM171.559 443.508H183.175V442.508H171.559V443.508ZM183.675 443.008V442.24H182.675V443.008H183.675ZM183.675 442.24C183.675 437.945 182.601 434.735 180.337 432.744L179.676 433.496C181.636 435.217 182.675 438.087 182.675 442.24H183.675ZM180.342 432.75C178.161 430.773 174.78 429.836 170.311 429.836V430.836C174.673 430.836 177.756 431.755 179.671 433.49L180.342 432.75ZM170.311 429.836C167.853 429.836 165.643 430.03 163.684 430.422L163.881 431.402C165.762 431.026 167.904 430.836 170.311 430.836V429.836ZM163.681 430.422C161.802 430.811 159.702 431.393 157.384 432.166L157.701 433.114C159.991 432.351 162.051 431.781 163.884 431.402L163.681 430.422ZM157.421 432.155C156.927 432.279 156.556 432.332 156.295 432.332V433.332C156.673 433.332 157.134 433.257 157.664 433.125L157.421 432.155ZM156.295 432.332C155.473 432.332 154.766 432.037 154.152 431.422L153.445 432.13C154.239 432.923 155.196 433.332 156.295 433.332V432.332ZM154.152 431.422C153.545 430.815 153.243 430.08 153.243 429.184H152.243C152.243 430.336 152.644 431.329 153.445 432.13L154.152 431.422ZM153.243 429.184C153.243 428.403 153.429 427.77 153.779 427.258C154.13 426.746 154.669 426.32 155.433 425.996L155.044 425.076C154.144 425.456 153.435 425.99 152.954 426.694C152.472 427.398 152.243 428.237 152.243 429.184H153.243ZM155.433 425.996C160.815 423.717 166.285 422.58 171.847 422.58V421.58C166.144 421.58 160.542 422.747 155.044 425.076L155.433 425.996ZM171.847 422.58C176.196 422.58 179.814 423.462 182.727 425.198L183.238 424.338C180.135 422.49 176.329 421.58 171.847 421.58V422.58ZM182.731 425.2C185.727 426.948 187.893 429.214 189.253 431.996L190.152 431.556C188.696 428.578 186.382 426.172 183.234 424.336L182.731 425.2ZM189.259 432.008C190.692 434.749 191.411 437.741 191.411 440.992H192.411C192.411 437.587 191.657 434.435 190.146 431.544L189.259 432.008ZM191.411 440.992V468.16H192.411V440.992H191.411ZM191.411 468.16C191.411 469.236 191.021 470.128 190.226 470.866L190.907 471.598C191.904 470.672 192.411 469.516 192.411 468.16H191.411ZM190.213 470.878C189.478 471.613 188.583 471.98 187.495 471.98V472.98C188.838 472.98 189.991 472.515 190.92 471.586L190.213 470.878ZM187.495 471.98C186.406 471.98 185.511 471.613 184.776 470.878L184.069 471.586C184.998 472.515 186.151 472.98 187.495 472.98V471.98ZM184.776 470.878C184.041 470.144 183.675 469.248 183.675 468.16H182.675C182.675 469.504 183.14 470.656 184.069 471.586L184.776 470.878ZM183.675 468.16V465.664H182.675V468.16H183.675ZM182.816 465.315C178.182 470.075 172.299 472.46 165.127 472.46V473.46C172.546 473.46 178.695 470.981 183.533 466.013L182.816 465.315ZM168.391 465.78C171.29 465.78 174.087 465.087 176.778 463.709L176.323 462.819C173.766 464.129 171.123 464.78 168.391 464.78V465.78ZM176.787 463.705C179.459 462.271 181.716 460.507 183.551 458.409L182.798 457.751C181.049 459.749 178.89 461.441 176.314 462.823L176.787 463.705ZM183.675 458.08V450.016H182.675V458.08H183.675ZM183.175 449.516H172.711V450.516H183.175V449.516ZM172.711 449.516C167.851 449.516 164.13 450.149 161.607 451.469C160.338 452.133 159.359 452.977 158.699 454.013C158.037 455.051 157.715 456.253 157.715 457.6H158.715C158.715 456.419 158.996 455.409 159.542 454.551C160.09 453.691 160.923 452.955 162.07 452.355C164.379 451.147 167.906 450.516 172.711 450.516V449.516ZM157.715 457.6C157.715 460.028 158.53 462.023 160.181 463.537L160.856 462.799C159.435 461.497 158.715 459.78 158.715 457.6H157.715ZM160.188 463.543C161.925 465.072 164.7 465.78 168.391 465.78V464.78C164.785 464.78 162.312 464.08 160.849 462.793L160.188 463.543ZM207.225 411.616L206.871 411.97L206.871 411.97L207.225 411.616ZM214.713 411.616L215.066 411.97L215.066 411.97L214.713 411.616ZM207.801 471.232L208.154 470.878L208.154 470.878L207.801 471.232ZM207.801 423.904L208.154 424.258L208.161 424.251L208.167 424.244L207.801 423.904ZM213.945 471.232L213.605 470.866L213.598 470.872L213.591 470.878L213.945 471.232ZM210.681 412.556C209.471 412.556 208.446 412.13 207.578 411.262L206.871 411.97C207.924 413.022 209.203 413.556 210.681 413.556V412.556ZM207.578 411.262C206.711 410.395 206.285 409.37 206.285 408.16H205.285C205.285 409.638 205.818 410.917 206.871 411.97L207.578 411.262ZM206.285 408.16V407.776H205.285V408.16H206.285ZM206.285 407.776C206.285 406.566 206.711 405.541 207.578 404.674L206.871 403.966C205.818 405.019 205.285 406.298 205.285 407.776H206.285ZM207.578 404.674C208.446 403.806 209.471 403.38 210.681 403.38V402.38C209.203 402.38 207.924 402.914 206.871 403.966L207.578 404.674ZM210.681 403.38H211.257V402.38H210.681V403.38ZM211.257 403.38C212.467 403.38 213.492 403.806 214.359 404.674L215.066 403.966C214.014 402.914 212.735 402.38 211.257 402.38V403.38ZM214.359 404.674C215.226 405.541 215.653 406.566 215.653 407.776H216.653C216.653 406.298 216.119 405.019 215.066 403.966L214.359 404.674ZM215.653 407.776V408.16H216.653V407.776H215.653ZM215.653 408.16C215.653 409.37 215.226 410.395 214.359 411.262L215.066 411.97C216.119 410.917 216.653 409.638 216.653 408.16H215.653ZM214.359 411.262C213.492 412.13 212.467 412.556 211.257 412.556V413.556C212.735 413.556 214.014 413.022 215.066 411.97L214.359 411.262ZM211.257 412.556H210.681V413.556H211.257V412.556ZM210.873 471.98C209.784 471.98 208.889 471.613 208.154 470.878L207.447 471.586C208.376 472.515 209.529 472.98 210.873 472.98V471.98ZM208.154 470.878C207.42 470.144 207.053 469.248 207.053 468.16H206.053C206.053 469.504 206.518 470.656 207.447 471.586L208.154 470.878ZM207.053 468.16V426.976H206.053V468.16H207.053ZM207.053 426.976C207.053 425.888 207.42 424.992 208.154 424.258L207.447 423.55C206.518 424.48 206.053 425.632 206.053 426.976H207.053ZM208.167 424.244C208.905 423.449 209.797 423.06 210.873 423.06V422.06C209.517 422.06 208.36 422.567 207.434 423.564L208.167 424.244ZM210.873 423.06C212.033 423.06 212.958 423.432 213.687 424.162L214.394 423.454C213.46 422.52 212.273 422.06 210.873 422.06V423.06ZM213.687 424.162C214.417 424.891 214.789 425.816 214.789 426.976H215.789C215.789 425.576 215.329 424.389 214.394 423.454L213.687 424.162ZM214.789 426.976V468.16H215.789V426.976H214.789ZM214.789 468.16C214.789 469.236 214.399 470.128 213.605 470.866L214.285 471.598C215.282 470.672 215.789 469.516 215.789 468.16H214.789ZM213.591 470.878C212.856 471.613 211.961 471.98 210.873 471.98V472.98C212.216 472.98 213.369 472.515 214.298 471.586L213.591 470.878ZM233.339 430.528H233.839V430.028H233.339V430.528ZM225.179 430.048L224.795 430.368L224.824 430.403L224.859 430.432L225.179 430.048ZM225.563 427.072L225.87 427.467L225.892 427.449L225.913 427.429L225.563 427.072ZM238.619 414.304L238.969 414.661L238.973 414.658L238.619 414.304ZM241.499 414.016L241.115 414.336L241.129 414.354L241.145 414.37L241.499 414.016ZM242.075 423.04H241.575V423.54H242.075V423.04ZM255.611 424.096L255.257 424.45L255.257 424.45L255.611 424.096ZM255.611 429.472L255.965 429.826L255.972 429.818L255.98 429.81L255.611 429.472ZM242.075 430.528V430.028H241.575V430.528H242.075ZM243.803 464.32L243.542 464.747L243.556 464.755L243.57 464.762L243.803 464.32ZM252.155 464.704L252.034 464.219L252.022 464.222L252.011 464.225L252.155 464.704ZM252.923 464.512L252.825 464.022L252.813 464.024L252.802 464.027L252.923 464.512ZM256.475 465.472L256.121 465.826L256.13 465.834L256.139 465.842L256.475 465.472ZM255.323 471.232L255.533 471.686L255.544 471.681L255.554 471.675L255.323 471.232ZM247.355 472.46C242.748 472.46 239.387 471.418 237.178 469.421C234.98 467.433 233.839 464.421 233.839 460.288H232.839C232.839 464.603 234.034 467.927 236.508 470.163C238.971 472.39 242.618 473.46 247.355 473.46V472.46ZM233.839 460.288V430.528H232.839V460.288H233.839ZM233.339 430.028H226.523V431.028H233.339V430.028ZM226.523 430.028C226.125 430.028 225.791 429.907 225.499 429.664L224.859 430.432C225.335 430.829 225.897 431.028 226.523 431.028V430.028ZM225.563 429.728C225.32 429.436 225.199 429.102 225.199 428.704H224.199C224.199 429.33 224.398 429.892 224.795 430.368L225.563 429.728ZM225.199 428.704C225.199 428.241 225.396 427.835 225.87 427.467L225.256 426.677C224.578 427.205 224.199 427.887 224.199 428.704H225.199ZM225.913 427.429L238.969 414.661L238.269 413.947L225.213 426.715L225.913 427.429ZM238.973 414.658C239.508 414.122 239.932 413.94 240.251 413.94V412.94C239.546 412.94 238.882 413.334 238.265 413.95L238.973 414.658ZM240.251 413.94C240.619 413.94 240.893 414.069 241.115 414.336L241.883 413.696C241.465 413.195 240.907 412.94 240.251 412.94V413.94ZM241.145 414.37C241.442 414.666 241.575 414.989 241.575 415.36H242.575C242.575 414.707 242.324 414.134 241.853 413.662L241.145 414.37ZM241.575 415.36V423.04H242.575V415.36H241.575ZM242.075 423.54H252.923V422.54H242.075V423.54ZM252.923 423.54C253.892 423.54 254.656 423.848 255.257 424.45L255.965 423.742C255.158 422.936 254.13 422.54 252.923 422.54V423.54ZM255.257 424.45C255.859 425.051 256.167 425.815 256.167 426.784H257.167C257.167 425.577 256.771 424.549 255.965 423.742L255.257 424.45ZM256.167 426.784C256.167 427.681 255.864 428.457 255.242 429.134L255.98 429.81C256.766 428.951 257.167 427.935 257.167 426.784H256.167ZM255.257 429.118C254.656 429.72 253.892 430.028 252.923 430.028V431.028C254.13 431.028 255.158 430.632 255.965 429.826L255.257 429.118ZM252.923 430.028H242.075V431.028H252.923V430.028ZM241.575 430.528V459.52H242.575V430.528H241.575ZM241.575 459.52C241.575 462.046 242.15 463.896 243.542 464.747L244.064 463.893C243.152 463.336 242.575 461.986 242.575 459.52H241.575ZM243.57 464.762C244.876 465.45 246.466 465.78 248.315 465.78V464.78C246.58 464.78 245.162 464.47 244.036 463.878L243.57 464.762ZM248.315 465.78C249.646 465.78 250.974 465.58 252.299 465.183L252.011 464.225C250.776 464.596 249.544 464.78 248.315 464.78V465.78ZM252.276 465.189C252.532 465.125 252.788 465.061 253.044 464.997L252.802 464.027C252.546 464.091 252.29 464.155 252.034 464.219L252.276 465.189ZM253.021 465.002C253.299 464.947 253.649 464.916 254.075 464.916V463.916C253.605 463.916 253.187 463.949 252.825 464.022L253.021 465.002ZM254.075 464.916C254.823 464.916 255.5 465.204 256.121 465.826L256.829 465.118C256.042 464.332 255.119 463.916 254.075 463.916V464.916ZM256.139 465.842C256.737 466.386 257.031 467.051 257.031 467.872H258.031C258.031 466.773 257.621 465.838 256.811 465.102L256.139 465.842ZM257.031 467.872C257.031 468.52 256.87 469.071 256.561 469.541C256.25 470.015 255.77 470.435 255.092 470.789L255.554 471.675C256.348 471.261 256.972 470.737 257.397 470.091C257.824 469.441 258.031 468.696 258.031 467.872H257.031ZM255.113 470.778C252.685 471.899 250.1 472.46 247.355 472.46V473.46C250.242 473.46 252.969 472.869 255.533 471.686L255.113 470.778ZM270.011 466.336L269.652 466.684L269.657 466.69L270.011 466.336ZM273.659 425.632L273.942 426.044L273.942 426.044L273.659 425.632ZM298.715 425.44L298.443 425.86L298.449 425.863L298.715 425.44ZM306.587 434.272L306.137 434.489L306.138 434.492L306.587 434.272ZM308.027 449.344L307.673 448.99L307.666 448.998L307.66 449.005L308.027 449.344ZM272.315 450.592V450.092H271.755L271.818 450.649L272.315 450.592ZM277.307 461.056L276.975 461.43L276.975 461.43L277.307 461.056ZM296.123 464.032L296.002 463.547L295.998 463.548L296.123 464.032ZM302.075 461.824L301.851 461.377L301.851 461.377L302.075 461.824ZM305.147 468.736L305.393 469.172L305.397 469.169L305.147 468.736ZM297.755 471.904L297.894 472.384L297.894 472.384L297.755 471.904ZM300.635 443.488V443.988H301.167L301.134 443.457L300.635 443.488ZM298.139 435.616L297.723 435.893L297.729 435.902L298.139 435.616ZM292.859 431.008L292.641 431.458L292.652 431.463L292.859 431.008ZM279.995 431.008L280.202 431.463L280.213 431.458L279.995 431.008ZM274.715 435.616L275.131 435.893L275.131 435.893L274.715 435.616ZM272.315 443.488L271.816 443.457L271.783 443.988H272.315V443.488ZM288.347 472.46C280.637 472.46 274.665 470.283 270.365 465.982L269.657 466.69C274.189 471.221 280.441 473.46 288.347 473.46V472.46ZM270.37 465.988C266.132 461.626 263.983 455.493 263.983 447.52H262.983C262.983 455.675 265.186 462.086 269.652 466.684L270.37 465.988ZM263.983 447.52C263.983 443.038 264.803 438.915 266.438 435.143L265.52 434.745C263.827 438.653 262.983 442.914 262.983 447.52H263.983ZM266.438 435.143C268.064 431.389 270.563 428.359 273.942 426.044L273.376 425.22C269.843 427.641 267.222 430.819 265.52 434.745L266.438 435.143ZM273.942 426.044C277.298 423.744 281.451 422.58 286.427 422.58V421.58C281.291 421.58 276.932 422.784 273.376 425.22L273.942 426.044ZM286.427 422.58C291.081 422.58 295.08 423.68 298.443 425.86L298.987 425.02C295.438 422.72 291.245 421.58 286.427 421.58V422.58ZM298.449 425.863C301.824 427.989 304.385 430.861 306.137 434.489L307.037 434.055C305.205 430.259 302.518 427.243 298.981 425.017L298.449 425.863ZM306.138 434.492C307.894 438.067 308.775 441.991 308.775 446.272H309.775C309.775 441.849 308.864 437.773 307.036 434.052L306.138 434.492ZM308.775 446.272C308.775 447.36 308.408 448.256 307.673 448.99L308.381 449.698C309.31 448.768 309.775 447.616 309.775 446.272H308.775ZM307.66 449.005C307.004 449.715 306.092 450.092 304.859 450.092V451.092C306.314 451.092 307.514 450.637 308.394 449.683L307.66 449.005ZM304.859 450.092H272.315V451.092H304.859V450.092ZM271.818 450.649C272.341 455.226 274.049 458.837 276.975 461.43L277.639 460.682C274.933 458.283 273.313 454.918 272.812 450.535L271.818 450.649ZM276.975 461.43C279.91 464.032 283.979 465.3 289.115 465.3V464.3C284.139 464.3 280.336 463.072 277.639 460.682L276.975 461.43ZM289.115 465.3C291.833 465.3 294.213 465.041 296.248 464.516L295.998 463.548C294.065 464.047 291.773 464.3 289.115 464.3V465.3ZM296.244 464.517C298.328 463.996 300.347 463.247 302.299 462.271L301.851 461.377C299.963 462.321 298.014 463.044 296.002 463.547L296.244 464.517ZM302.299 462.271C302.733 462.054 303.231 461.94 303.803 461.94V460.94C303.095 460.94 302.441 461.082 301.851 461.377L302.299 462.271ZM303.803 461.94C304.7 461.94 305.476 462.243 306.153 462.865L306.829 462.127C305.97 461.341 304.954 460.94 303.803 460.94V461.94ZM306.153 462.865C306.813 463.469 307.143 464.229 307.143 465.184H308.143C308.143 463.963 307.705 462.931 306.829 462.127L306.153 462.865ZM307.143 465.184C307.143 466.35 306.47 467.395 304.897 468.303L305.397 469.169C307.152 468.157 308.143 466.834 308.143 465.184H307.143ZM304.901 468.301C302.435 469.692 300.006 470.732 297.616 471.424L297.894 472.384C300.368 471.668 302.867 470.596 305.393 469.171L304.901 468.301ZM297.616 471.424C295.246 472.11 292.162 472.46 288.347 472.46V473.46C292.212 473.46 295.4 473.106 297.894 472.384L297.616 471.424ZM301.134 443.457C300.938 440.25 300.084 437.532 298.549 435.33L297.729 435.902C299.138 437.924 299.948 440.454 300.136 443.519L301.134 443.457ZM298.555 435.339C297.1 433.157 295.271 431.555 293.066 430.553L292.652 431.463C294.671 432.381 296.362 433.851 297.723 435.893L298.555 435.339ZM293.077 430.558C290.903 429.504 288.684 428.972 286.427 428.972V429.972C288.522 429.972 290.591 430.464 292.641 431.458L293.077 430.558ZM286.427 428.972C284.17 428.972 281.951 429.504 279.777 430.558L280.213 431.458C282.263 430.464 284.332 429.972 286.427 429.972V428.972ZM279.788 430.553C277.583 431.555 275.754 433.157 274.299 435.339L275.131 435.893C276.492 433.851 278.183 432.381 280.202 431.463L279.788 430.553ZM274.299 435.339C272.832 437.54 272.012 440.254 271.816 443.457L272.814 443.519C273.002 440.45 273.782 437.916 275.131 435.893L274.299 435.339ZM272.315 443.988H300.635V442.988H272.315V443.988Z" fill="black"/>
<circle cx="211" cy="407" r="8" fill="#62B587"/>
</svg>
