<svg width="80" height="80" viewBox="0 0 80 80" fill="none" xmlns="http://www.w3.org/2000/svg">
<g clip-path="url(#clip0)">
<path d="M40.2806 56.2825C43.6875 56.2825 46.4488 53.5381 46.4488 50.1525C46.4488 46.7669 43.6869 44.0225 40.2806 44.0225C36.8744 44.0225 34.1125 46.7669 34.1125 50.1525C34.1119 53.5381 36.8737 56.2825 40.2806 56.2825ZM10.0063 66.87L10 29.8131C10 13.3475 23.4312 0 40 0C56.5688 0 70 13.3475 70 29.8131C70 46.2787 56.8487 59.6263 40.2806 59.6263C35.0156 59.6263 30.7481 55.385 30.7481 50.1531C30.7481 44.9213 35.0162 40.68 40.2806 40.68C46.3194 40.68 50.935 35.815 50.935 29.8137C50.935 23.8125 46.0394 18.9475 40.0006 18.9475C33.9619 18.9475 29.0663 23.8125 29.0663 29.8125L29.0731 70.5269C29.075 79.7081 19.0006 82.2163 13.4981 78.0513C15.1119 76.9456 16.1694 75.0963 16.1694 73.0013C16.1681 69.6169 13.41 66.8737 10.0063 66.87Z" fill="url(#paint0_linear)"/>
</g>
<defs>
<linearGradient id="paint0_linear" x1="20.5312" y1="8.66719" x2="44.6979" y2="56.1672" gradientUnits="userSpaceOnUse">
<stop stop-color="#C36AD5"/>
<stop offset="1" stop-color="#662CAA"/>
</linearGradient>
<clipPath id="clip0">
<rect width="80" height="80" fill="white"/>
</clipPath>
</defs>
</svg>
